v 0 0.551583 0.059585
v 0 0.551583 -0.940415
l 1 2
v 0 0.551583 -0.05
v 0.702371 -0.160228 -0.05
l 3 4
v 0.544268 2.43328e-17 -0.05
v 0.544268 -1.97712e-16 0.95
l 5 6
v 0.544268 0 0.059585
v -0.158104 0.711811 0.059585
l 7 8
v 0.551583 1.09585 0.059585
v 0.551583 1.09585 -0.940415
l 9 10
v 0.551583 1.09585 -0.05
v -0.160229 0.393479 -0.05
l 11 12
v 0 0.551583 0.059585
v 0.711811 1.25395 0.059585
l 13 14
v 1.09585 0.544268 0.059585
v 1.09585 0.544268 -0.940415
l 15 16
v 1.09585 0.544268 -0.05
v 0.393479 1.25608 -0.05
l 17 18
v 0.551583 1.09585 0.059585
v 1.25395 0.384039 0.059585
l 19 20
v 0.544268 2.43328e-17 -0.05
v 1.25608 0.702371 -0.05
l 21 22
v 1.09585 0.544268 0.059585
v 0.384039 -0.158104 0.059585
l 23 24
