v 0 0.551583 0.059585
v 0 0.551583 -0.05
l 1 2
v 0 0.551583 -0.05
v 0.544268 2.43328e-17 -0.05
l 3 4
v 0.544268 2.43328e-17 -0.05
v 0.544268 0 0.059585
l 5 6
v 0.544268 0 0.059585
v 0 0.551583 0.059585
l 7 8
v 0.551583 1.09585 0.059585
v 0.551583 1.09585 -0.05
l 9 10
v 0.551583 1.09585 -0.05
v 0 0.551583 -0.05
l 11 12
v 0 0.551583 0.059585
v 0.551583 1.09585 0.059585
l 13 14
v 1.09585 0.544268 0.059585
v 1.09585 0.544268 -0.05
l 15 16
v 1.09585 0.544268 -0.05
v 0.551583 1.09585 -0.05
l 17 18
v 0.551583 1.09585 0.059585
v 1.09585 0.544268 0.059585
l 19 20
v 0.544268 2.43328e-17 -0.05
v 1.09585 0.544268 -0.05
l 21 22
v 1.09585 0.544268 0.059585
v 0.544268 0 0.059585
l 23 24
