v 0.605142 1.0947 -0.05
v 0.557925 1.07087 -0.05
v 0.484828 1.06016 0.0496078
v 0.459303 1.03222 0.0496078
v 0.457903 1.0318 -0.05
v 0.427823 0.885272 0.0496078
v 0.382764 0.872963 -0.05
v 0.376395 0.875129 0.0496078
v 0.358184 0.866338 0.0496078
v 0.358818 0.863901 -0.05
v 0.367729 0.851292 0.0496078
v 0.386146 0.73203 0.0496078
v 0.385861 0.732619 -0.05
v 0.360885 0.732973 0.0496078
v 0.360885 0.732973 -0.05
v 0.28657 0.653054 -0.05
v 0.218304 0.591238 0.0496078
v 0.212754 0.574938 -0.05
v 0.48129 0.0945297 -0.05
v 0.664418 -6.06104e-06 -0.05
v 0.677828 0.00351049 0.0496078
v 0.783302 0.0888673 0.0496078
v 0.97276 0.364878 -0.05
v 0.972431 0.36846 0.0496078
v 0.882152 0.562883 0.0496078
v 0.882334 0.562892 -0.05
v 0.634667 0.695565 -0.05
v 0.684894 0.834699 0.0496078
v 0.684529 0.837612 -0.05
v 0.598575 0.881795 0.0496078
v 0.60706 0.888776 -0.05
v 0.626256 0.893416 0.0496078
v 0.630177 0.895471 -0.05
v 0.715478 0.901717 0.0496078
v 0.719514 0.907533 -0.05
v 0.721623 0.914463 0.0496078
v 0.731635 0.939466 0.0496078
v 0.732111 0.942109 -0.05
v 0.645183 1.08511 -0.05
v 0.640103 1.09584 0.0496078
