v 0.563713 1.07567 0.0496078
v 0.607152 1.09584 0.0496078
l 1 2
v 0.605142 1.0947 -0.05
v 0.557925 1.07087 -0.05
l 3 4
v 0.541479 1.04621 0.0496078
v 0.563713 1.07567 0.0496078
l 5 6
v 0.557925 1.07087 -0.05
v 0.53948 1.0423 -0.05
l 7 8
v 0.518487 1.05014 0.0496078
v 0.541479 1.04621 0.0496078
l 9 10
v 0.53948 1.0423 -0.05
v 0.51177 1.05231 -0.05
l 11 12
v 0.484828 1.06016 0.0496078
v 0.518487 1.05014 0.0496078
l 13 14
v 0.481228 1.05075 -0.05
v 0.484828 1.06016 0.0496078
l 15 16
v 0.51177 1.05231 -0.05
v 0.481228 1.05075 -0.05
l 17 18
v 0.480405 1.04633 0.0496078
v 0.484828 1.06016 0.0496078
l 19 20
v 0.459303 1.03222 0.0496078
v 0.480405 1.04633 0.0496078
l 21 22
v 0.457903 1.0318 -0.05
v 0.459303 1.03222 0.0496078
l 23 24
v 0.481228 1.05075 -0.05
v 0.457903 1.0318 -0.05
l 25 26
v 0.464343 1.01834 0.0496078
v 0.459303 1.03222 0.0496078
l 27 28
v 0.457903 1.0318 -0.05
v 0.464961 1.01197 -0.05
l 29 30
v 0.466215 1.00798 0.0496078
v 0.464343 1.01834 0.0496078
l 31 32
v 0.446127 0.9817 0.0496078
v 0.466215 1.00798 0.0496078
l 33 34
v 0.464961 1.01197 -0.05
v 0.443954 0.980996 -0.05
l 35 36
v 0.443954 0.980996 -0.05
v 0.436821 0.957701 -0.05
l 37 38
v 0.427823 0.885272 0.0496078
v 0.446127 0.9817 0.0496078
l 39 40
v 0.436821 0.957701 -0.05
v 0.428254 0.889704 -0.05
l 41 42
v 0.428254 0.889704 -0.05
v 0.420156 0.867213 -0.05
l 43 44
v 0.411302 0.868095 0.0496078
v 0.427823 0.885272 0.0496078
l 45 46
v 0.420156 0.867213 -0.05
v 0.382764 0.872963 -0.05
l 47 48
v 0.382764 0.872963 -0.05
v 0.376395 0.875129 0.0496078
l 49 50
v 0.376395 0.875129 0.0496078
v 0.411302 0.868095 0.0496078
l 51 52
v 0.358184 0.866338 0.0496078
v 0.376395 0.875129 0.0496078
l 53 54
v 0.358818 0.863901 -0.05
v 0.358184 0.866338 0.0496078
l 55 56
v 0.382764 0.872963 -0.05
v 0.358818 0.863901 -0.05
l 57 58
v 0.367729 0.851292 0.0496078
v 0.358184 0.866338 0.0496078
l 59 60
v 0.358818 0.863901 -0.05
v 0.382335 0.839629 -0.05
l 61 62
v 0.423775 0.823128 0.0496078
v 0.367729 0.851292 0.0496078
l 63 64
v 0.382335 0.839629 -0.05
v 0.430446 0.822104 -0.05
l 65 66
v 0.466043 0.810396 0.0496078
v 0.423775 0.823128 0.0496078
l 67 68
v 0.430446 0.822104 -0.05
v 0.466043 0.810396 -0.05
l 69 70
v 0.448584 0.772878 0.0496078
v 0.466043 0.810396 0.0496078
l 71 72
v 0.466043 0.810396 -0.05
v 0.441309 0.759721 -0.05
l 73 74
v 0.434774 0.748659 0.0496078
v 0.448584 0.772878 0.0496078
l 75 76
v 0.409546 0.719585 0.0496078
v 0.434774 0.748659 0.0496078
l 77 78
v 0.441309 0.759721 -0.05
v 0.417575 0.72316 -0.05
l 79 80
v 0.417575 0.72316 -0.05
v 0.398798 0.71866 -0.05
l 81 82
v 0.386146 0.73203 0.0496078
v 0.409546 0.719585 0.0496078
l 83 84
v 0.385861 0.732619 -0.05
v 0.386146 0.73203 0.0496078
l 85 86
v 0.398798 0.71866 -0.05
v 0.385861 0.732619 -0.05
l 87 88
v 0.360885 0.732973 0.0496078
v 0.386146 0.73203 0.0496078
l 89 90
v 0.360885 0.732973 -0.05
v 0.360885 0.732973 0.0496078
l 91 92
v 0.385861 0.732619 -0.05
v 0.360885 0.732973 -0.05
l 93 94
v 0.322643 0.695539 0.0496078
v 0.360885 0.732973 0.0496078
l 95 96
v 0.360885 0.732973 -0.05
v 0.330033 0.703396 -0.05
l 97 98
v 0.330033 0.703396 -0.05
v 0.303227 0.6741 -0.05
l 99 100
v 0.294501 0.654287 0.0496078
v 0.322643 0.695539 0.0496078
l 101 102
v 0.303227 0.6741 -0.05
v 0.298277 0.653489 -0.05
l 103 104
v 0.298277 0.653489 -0.05
v 0.28657 0.653054 -0.05
l 105 106
v 0.268488 0.642451 0.0496078
v 0.294501 0.654287 0.0496078
l 107 108
v 0.28657 0.653054 -0.05
v 0.253142 0.628877 -0.05
l 109 110
v 0.218304 0.591238 0.0496078
v 0.268488 0.642451 0.0496078
l 111 112
v 0.212754 0.574938 -0.05
v 0.218304 0.591238 0.0496078
l 113 114
v 0.253142 0.628877 -0.05
v 0.212754 0.574938 -0.05
l 115 116
v 0.211596 0.535912 0.0496078
v 0.218304 0.591238 0.0496078
l 117 118
v 0.212754 0.574938 -0.05
v 0.215339 0.516556 -0.05
l 119 120
v 0.228307 0.489642 0.0496078
v 0.211596 0.535912 0.0496078
l 121 122
v 0.215339 0.516556 -0.05
v 0.227185 0.489713 -0.05
l 123 124
v 0.173452 0.486082 0.0496078
v 0.228307 0.489642 0.0496078
l 125 126
v 0.227185 0.489713 -0.05
v 0.152218 0.48302 -0.05
l 127 128
v 0.104921 0.471682 0.0496078
v 0.173452 0.486082 0.0496078
l 129 130
v 0.152218 0.48302 -0.05
v 0.0798192 0.458284 -0.05
l 131 132
v 0.0595589 0.443538 0.0496078
v 0.104921 0.471682 0.0496078
l 133 134
v 0.0184018 0.396343 0.0496078
v 0.0595589 0.443538 0.0496078
l 135 136
v 0.0798192 0.458284 -0.05
v 0.0156666 0.39347 -0.05
l 137 138
v 0.00153296 0.353214 0.0496078
v 0.0184018 0.396343 0.0496078
l 139 140
v 0.0156666 0.39347 -0.05
v 4.44145e-08 0.340649 -0.05
l 141 142
v 0.00338905 0.253666 0.0496078
v 0.00153296 0.353214 0.0496078
l 143 144
v 4.44145e-08 0.340649 -0.05
v 0.00802796 0.227518 -0.05
l 145 146
v 0.0246012 0.16976 0.0496078
v 0.00338905 0.253666 0.0496078
l 147 148
v 0.00802796 0.227518 -0.05
v 0.0243654 0.168719 -0.05
l 149 150
v 0.043208 0.143958 0.0496078
v 0.0246012 0.16976 0.0496078
l 151 152
v 0.0243654 0.168719 -0.05
v 0.0408875 0.144838 -0.05
l 153 154
v 0.0408875 0.144838 -0.05
v 0.0712508 0.109199 -0.05
l 155 156
v 0.0734939 0.104733 0.0496078
v 0.043208 0.143958 0.0496078
l 157 158
v 0.112469 0.0721068 0.0496078
v 0.0734939 0.104733 0.0496078
l 159 160
v 0.0712508 0.109199 -0.05
v 0.135024 0.0526205 -0.05
l 161 162
v 0.151584 0.0388673 0.0496078
v 0.112469 0.0721068 0.0496078
l 163 164
v 0.135024 0.0526205 -0.05
v 0.196021 0.0150391 -0.05
l 165 166
v 0.196643 0.0144668 0.0496078
v 0.151584 0.0388673 0.0496078
l 167 168
v 0.255189 0.00347855 0.0496078
v 0.196643 0.0144668 0.0496078
l 169 170
v 0.196021 0.0150391 -0.05
v 0.259291 0.00331064 -0.05
l 171 172
v 0.322413 0.0170592 0.0496078
v 0.255189 0.00347855 0.0496078
l 173 174
v 0.259291 0.00331064 -0.05
v 0.322622 0.0166072 -0.05
l 175 176
v 0.322622 0.0166072 -0.05
v 0.351718 0.0332819 -0.05
l 177 178
v 0.372608 0.053656 0.0496078
v 0.322413 0.0170592 0.0496078
l 179 180
v 0.351718 0.0332819 -0.05
v 0.375872 0.0569579 -0.05
l 181 182
v 0.419542 0.0680647 0.0496078
v 0.372608 0.053656 0.0496078
l 183 184
v 0.375872 0.0569579 -0.05
v 0.445334 0.0763796 -0.05
l 185 186
v 0.466911 0.0859732 0.0496078
v 0.419542 0.0680647 0.0496078
l 187 188
v 0.445334 0.0763796 -0.05
v 0.48129 0.0945297 -0.05
l 189 190
v 0.503547 0.0939738 0.0496078
v 0.466911 0.0859732 0.0496078
l 191 192
v 0.48129 0.0945297 -0.05
v 0.51521 0.091669 -0.05
l 193 194
v 0.549121 0.0484813 0.0496078
v 0.503547 0.0939738 0.0496078
l 195 196
v 0.51521 0.091669 -0.05
v 0.55599 0.0421611 -0.05
l 197 198
v 0.579564 0.0210359 0.0496078
v 0.549121 0.0484813 0.0496078
l 199 200
v 0.55599 0.0421611 -0.05
v 0.578168 0.023459 -0.05
l 201 202
v 0.619043 0.00495495 0.0496078
v 0.579564 0.0210359 0.0496078
l 203 204
v 0.578168 0.023459 -0.05
v 0.616888 0.00494571 -0.05
l 205 206
v 0.616888 0.00494571 -0.05
v 0.664418 -6.06104e-06 -0.05
l 207 208
v 0.677828 0.00351049 0.0496078
v 0.619043 0.00495495 0.0496078
l 209 210
v 0.664418 -6.06104e-06 -0.05
v 0.719731 0.027828 -0.05
l 211 212
v 0.732373 0.037038 0.0496078
v 0.677828 0.00351049 0.0496078
l 213 214
v 0.719731 0.027828 -0.05
v 0.744903 0.0485909 -0.05
l 215 216
v 0.754812 0.0708427 0.0496078
v 0.732373 0.037038 0.0496078
l 217 218
v 0.744903 0.0485909 -0.05
v 0.752806 0.0625851 -0.05
l 219 220
v 0.752806 0.0625851 -0.05
v 0.763583 0.0881479 -0.05
l 221 222
v 0.770818 0.0952108 0.0496078
v 0.754812 0.0708427 0.0496078
l 223 224
v 0.763583 0.0881479 -0.05
v 0.777222 0.0914572 -0.05
l 225 226
v 0.777222 0.0914572 -0.05
v 0.783302 0.0888673 0.0496078
l 227 228
v 0.783302 0.0888673 0.0496078
v 0.770818 0.0952108 0.0496078
l 229 230
v 0.777222 0.0914572 -0.05
v 0.812303 0.0953786 -0.05
l 231 232
v 0.828273 0.100534 0.0496078
v 0.783302 0.0888673 0.0496078
l 233 234
v 0.812303 0.0953786 -0.05
v 0.866806 0.129702 -0.05
l 235 236
v 0.878612 0.144461 0.0496078
v 0.828273 0.100534 0.0496078
l 237 238
v 0.866806 0.129702 -0.05
v 0.904549 0.196851 -0.05
l 239 240
v 0.90567 0.199187 0.0496078
v 0.878612 0.144461 0.0496078
l 241 242
v 0.920814 0.238444 0.0496078
v 0.90567 0.199187 0.0496078
l 243 244
v 0.904549 0.196851 -0.05
v 0.91997 0.236696 -0.05
l 245 246
v 0.91997 0.236696 -0.05
v 0.940872 0.279968 -0.05
l 247 248
v 0.944975 0.291099 0.0496078
v 0.920814 0.238444 0.0496078
l 249 250
v 0.940872 0.279968 -0.05
v 0.958269 0.320413 -0.05
l 251 252
v 0.963428 0.327097 0.0496078
v 0.944975 0.291099 0.0496078
l 253 254
v 0.958269 0.320413 -0.05
v 0.97276 0.364878 -0.05
l 255 256
v 0.97276 0.364878 -0.05
v 0.972431 0.36846 0.0496078
l 257 258
v 0.972431 0.36846 0.0496078
v 0.963428 0.327097 0.0496078
l 259 260
v 0.97276 0.364878 -0.05
v 0.961234 0.396754 -0.05
l 261 262
v 0.961587 0.395194 0.0496078
v 0.972431 0.36846 0.0496078
l 263 264
v 0.951585 0.449525 0.0496078
v 0.961587 0.395194 0.0496078
l 265 266
v 0.961234 0.396754 -0.05
v 0.950277 0.459213 -0.05
l 267 268
v 0.928458 0.509975 0.0496078
v 0.951585 0.449525 0.0496078
l 269 270
v 0.950277 0.459213 -0.05
v 0.929754 0.507538 -0.05
l 271 272
v 0.882152 0.562883 0.0496078
v 0.928458 0.509975 0.0496078
l 273 274
v 0.882334 0.562892 -0.05
v 0.882152 0.562883 0.0496078
l 275 276
v 0.929754 0.507538 -0.05
v 0.882334 0.562892 -0.05
l 277 278
v 0.882334 0.562892 -0.05
v 0.838077 0.577476 -0.05
l 279 280
v 0.829581 0.578557 0.0496078
v 0.882152 0.562883 0.0496078
l 281 282
v 0.838077 0.577476 -0.05
v 0.796047 0.580443 -0.05
l 283 284
v 0.79398 0.579972 0.0496078
v 0.829581 0.578557 0.0496078
l 285 286
v 0.779724 0.608107 0.0496078
v 0.79398 0.579972 0.0496078
l 287 288
v 0.796047 0.580443 -0.05
v 0.779735 0.607942 -0.05
l 289 290
v 0.76849 0.627851 0.0496078
v 0.779724 0.608107 0.0496078
l 291 292
v 0.779735 0.607942 -0.05
v 0.766373 0.629427 -0.05
l 293 294
v 0.737088 0.661693 0.0496078
v 0.76849 0.627851 0.0496078
l 295 296
v 0.766373 0.629427 -0.05
v 0.736575 0.662143 -0.05
l 297 298
v 0.697716 0.686559 0.0496078
v 0.737088 0.661693 0.0496078
l 299 300
v 0.736575 0.662143 -0.05
v 0.691673 0.68746 -0.05
l 301 302
v 0.644872 0.692404 0.0496078
v 0.697716 0.686559 0.0496078
l 303 304
v 0.691673 0.68746 -0.05
v 0.634667 0.695565 -0.05
l 305 306
v 0.624187 0.703394 0.0496078
v 0.644872 0.692404 0.0496078
l 307 308
v 0.634667 0.695565 -0.05
v 0.618341 0.709574 -0.05
l 309 310
v 0.605611 0.730723 0.0496078
v 0.624187 0.703394 0.0496078
l 311 312
v 0.618341 0.709574 -0.05
v 0.60477 0.730464 -0.05
l 313 314
v 0.606739 0.745443 0.0496078
v 0.605611 0.730723 0.0496078
l 315 316
v 0.60477 0.730464 -0.05
v 0.640688 0.770895 -0.05
l 317 318
v 0.641222 0.770369 0.0496078
v 0.606739 0.745443 0.0496078
l 319 320
v 0.676686 0.811121 0.0496078
v 0.641222 0.770369 0.0496078
l 321 322
v 0.640688 0.770895 -0.05
v 0.678431 0.814156 -0.05
l 323 324
v 0.684894 0.834699 0.0496078
v 0.676686 0.811121 0.0496078
l 325 326
v 0.684529 0.837612 -0.05
v 0.684894 0.834699 0.0496078
l 327 328
v 0.678431 0.814156 -0.05
v 0.684529 0.837612 -0.05
l 329 330
v 0.610455 0.838548 0.0496078
v 0.684894 0.834699 0.0496078
l 331 332
v 0.684529 0.837612 -0.05
v 0.628153 0.836937 -0.05
l 333 334
v 0.628153 0.836937 -0.05
v 0.57183 0.843196 -0.05
l 335 336
v 0.569642 0.843442 0.0496078
v 0.610455 0.838548 0.0496078
l 337 338
v 0.598575 0.881795 0.0496078
v 0.569642 0.843442 0.0496078
l 339 340
v 0.57183 0.843196 -0.05
v 0.60706 0.888776 -0.05
l 341 342
v 0.626256 0.893416 0.0496078
v 0.598575 0.881795 0.0496078
l 343 344
v 0.630177 0.895471 -0.05
v 0.626256 0.893416 0.0496078
l 345 346
v 0.60706 0.888776 -0.05
v 0.630177 0.895471 -0.05
l 347 348
v 0.625387 0.918864 0.0496078
v 0.626256 0.893416 0.0496078
l 349 350
v 0.630177 0.895471 -0.05
v 0.620805 0.918415 -0.05
l 351 352
v 0.620805 0.918415 -0.05
v 0.641475 0.920759 -0.05
l 353 354
v 0.661741 0.913334 0.0496078
v 0.625387 0.918864 0.0496078
l 355 356
v 0.641475 0.920759 -0.05
v 0.679855 0.907003 -0.05
l 357 358
v 0.715478 0.901717 0.0496078
v 0.661741 0.913334 0.0496078
l 359 360
v 0.719514 0.907533 -0.05
v 0.715478 0.901717 0.0496078
l 361 362
v 0.679855 0.907003 -0.05
v 0.719514 0.907533 -0.05
l 363 364
v 0.719514 0.907533 -0.05
v 0.721623 0.914463 0.0496078
l 365 366
v 0.721623 0.914463 0.0496078
v 0.715478 0.901717 0.0496078
l 367 368
v 0.719514 0.907533 -0.05
v 0.715733 0.925848 -0.05
l 369 370
v 0.713598 0.925301 0.0496078
v 0.721623 0.914463 0.0496078
l 371 372
v 0.731635 0.939466 0.0496078
v 0.713598 0.925301 0.0496078
l 373 374
v 0.732111 0.942109 -0.05
v 0.731635 0.939466 0.0496078
l 375 376
v 0.715733 0.925848 -0.05
v 0.732111 0.942109 -0.05
l 377 378
v 0.700234 0.948304 0.0496078
v 0.731635 0.939466 0.0496078
l 379 380
v 0.732111 0.942109 -0.05
v 0.698659 0.948372 -0.05
l 381 382
v 0.67801 0.957659 0.0496078
v 0.700234 0.948304 0.0496078
l 383 384
v 0.698659 0.948372 -0.05
v 0.677047 0.958698 -0.05
l 385 386
v 0.673147 0.975899 0.0496078
v 0.67801 0.957659 0.0496078
l 387 388
v 0.677047 0.958698 -0.05
v 0.667749 0.982083 -0.05
l 389 390
v 0.640673 1.01182 0.0496078
v 0.673147 0.975899 0.0496078
l 391 392
v 0.667749 0.982083 -0.05
v 0.639602 1.01728 -0.05
l 393 394
v 0.64772 1.07583 0.0496078
v 0.640673 1.01182 0.0496078
l 395 396
v 0.639602 1.01728 -0.05
v 0.645183 1.08511 -0.05
l 397 398
v 0.645183 1.08511 -0.05
v 0.640103 1.09584 0.0496078
l 399 400
v 0.640103 1.09584 0.0496078
v 0.64772 1.07583 0.0496078
l 401 402
v 0.645183 1.08511 -0.05
v 0.605142 1.0947 -0.05
l 403 404
v 0.607152 1.09584 0.0496078
v 0.640103 1.09584 0.0496078
l 405 406
