v 0.541479 1.04621 0.0496078
v 0.563713 1.07567 0.0496078
l 1 2
v 0.518487 1.05014 0.0496078
v 0.541479 1.04621 0.0496078
l 3 4
v 0.53948 1.0423 -0.05
v 0.541479 1.04621 0.0496078
l 5 6
v 0.557925 1.07087 -0.05
v 0.53948 1.0423 -0.05
l 7 8
v 0.53948 1.0423 -0.05
v 0.51177 1.05231 -0.05
l 9 10
v 0.53948 1.0423 -0.05
v 0.541479 1.04621 0.0496078
l 11 12
v 0.481228 1.05075 -0.05
v 0.484828 1.06016 0.0496078
l 13 14
v 0.51177 1.05231 -0.05
v 0.481228 1.05075 -0.05
l 15 16
v 0.481228 1.05075 -0.05
v 0.457903 1.0318 -0.05
l 17 18
v 0.481228 1.05075 -0.05
v 0.480405 1.04633 0.0496078
l 19 20
v 0.480405 1.04633 0.0496078
v 0.484828 1.06016 0.0496078
l 21 22
v 0.459303 1.03222 0.0496078
v 0.480405 1.04633 0.0496078
l 23 24
v 0.481228 1.05075 -0.05
v 0.480405 1.04633 0.0496078
l 25 26
v 0.457903 1.0318 -0.05
v 0.464961 1.01197 -0.05
l 27 28
v 0.464961 1.01197 -0.05
v 0.443954 0.980996 -0.05
l 29 30
v 0.464961 1.01197 -0.05
v 0.466215 1.00798 0.0496078
l 31 32
v 0.466215 1.00798 0.0496078
v 0.464343 1.01834 0.0496078
l 33 34
v 0.446127 0.9817 0.0496078
v 0.466215 1.00798 0.0496078
l 35 36
v 0.464961 1.01197 -0.05
v 0.466215 1.00798 0.0496078
l 37 38
v 0.428254 0.889704 -0.05
v 0.420156 0.867213 -0.05
l 39 40
v 0.420156 0.867213 -0.05
v 0.382764 0.872963 -0.05
l 41 42
v 0.420156 0.867213 -0.05
v 0.411302 0.868095 0.0496078
l 43 44
v 0.411302 0.868095 0.0496078
v 0.427823 0.885272 0.0496078
l 45 46
v 0.376395 0.875129 0.0496078
v 0.411302 0.868095 0.0496078
l 47 48
v 0.420156 0.867213 -0.05
v 0.411302 0.868095 0.0496078
l 49 50
v 0.466043 0.810396 0.0496078
v 0.423775 0.823128 0.0496078
l 51 52
v 0.448584 0.772878 0.0496078
v 0.466043 0.810396 0.0496078
l 53 54
v 0.466043 0.810396 -0.05
v 0.466043 0.810396 0.0496078
l 55 56
v 0.430446 0.822104 -0.05
v 0.466043 0.810396 -0.05
l 57 58
v 0.466043 0.810396 -0.05
v 0.441309 0.759721 -0.05
l 59 60
v 0.466043 0.810396 -0.05
v 0.466043 0.810396 0.0496078
l 61 62
v 0.409546 0.719585 0.0496078
v 0.434774 0.748659 0.0496078
l 63 64
v 0.386146 0.73203 0.0496078
v 0.409546 0.719585 0.0496078
l 65 66
v 0.417575 0.72316 -0.05
v 0.409546 0.719585 0.0496078
l 67 68
v 0.398798 0.71866 -0.05
v 0.409546 0.719585 0.0496078
l 69 70
v 0.441309 0.759721 -0.05
v 0.417575 0.72316 -0.05
l 71 72
v 0.417575 0.72316 -0.05
v 0.398798 0.71866 -0.05
l 73 74
v 0.417575 0.72316 -0.05
v 0.409546 0.719585 0.0496078
l 75 76
v 0.417575 0.72316 -0.05
v 0.398798 0.71866 -0.05
l 77 78
v 0.398798 0.71866 -0.05
v 0.385861 0.732619 -0.05
l 79 80
v 0.398798 0.71866 -0.05
v 0.409546 0.719585 0.0496078
l 81 82
v 0.294501 0.654287 0.0496078
v 0.322643 0.695539 0.0496078
l 83 84
v 0.268488 0.642451 0.0496078
v 0.294501 0.654287 0.0496078
l 85 86
v 0.298277 0.653489 -0.05
v 0.294501 0.654287 0.0496078
l 87 88
v 0.303227 0.6741 -0.05
v 0.298277 0.653489 -0.05
l 89 90
v 0.298277 0.653489 -0.05
v 0.28657 0.653054 -0.05
l 91 92
v 0.298277 0.653489 -0.05
v 0.294501 0.654287 0.0496078
l 93 94
v 0.228307 0.489642 0.0496078
v 0.211596 0.535912 0.0496078
l 95 96
v 0.173452 0.486082 0.0496078
v 0.228307 0.489642 0.0496078
l 97 98
v 0.227185 0.489713 -0.05
v 0.228307 0.489642 0.0496078
l 99 100
v 0.215339 0.516556 -0.05
v 0.227185 0.489713 -0.05
l 101 102
v 0.227185 0.489713 -0.05
v 0.152218 0.48302 -0.05
l 103 104
v 0.227185 0.489713 -0.05
v 0.228307 0.489642 0.0496078
l 105 106
v 0.503547 0.0939738 0.0496078
v 0.466911 0.0859732 0.0496078
l 107 108
v 0.549121 0.0484813 0.0496078
v 0.503547 0.0939738 0.0496078
l 109 110
v 0.51521 0.091669 -0.05
v 0.503547 0.0939738 0.0496078
l 111 112
v 0.48129 0.0945297 -0.05
v 0.51521 0.091669 -0.05
l 113 114
v 0.51521 0.091669 -0.05
v 0.55599 0.0421611 -0.05
l 115 116
v 0.51521 0.091669 -0.05
v 0.503547 0.0939738 0.0496078
l 117 118
v 0.752806 0.0625851 -0.05
v 0.763583 0.0881479 -0.05
l 119 120
v 0.763583 0.0881479 -0.05
v 0.777222 0.0914572 -0.05
l 121 122
v 0.763583 0.0881479 -0.05
v 0.770818 0.0952108 0.0496078
l 123 124
v 0.770818 0.0952108 0.0496078
v 0.754812 0.0708427 0.0496078
l 125 126
v 0.783302 0.0888673 0.0496078
v 0.770818 0.0952108 0.0496078
l 127 128
v 0.763583 0.0881479 -0.05
v 0.770818 0.0952108 0.0496078
l 129 130
v 0.777222 0.0914572 -0.05
v 0.770818 0.0952108 0.0496078
l 131 132
v 0.763583 0.0881479 -0.05
v 0.777222 0.0914572 -0.05
l 133 134
v 0.777222 0.0914572 -0.05
v 0.783302 0.0888673 0.0496078
l 135 136
v 0.777222 0.0914572 -0.05
v 0.812303 0.0953786 -0.05
l 137 138
v 0.777222 0.0914572 -0.05
v 0.770818 0.0952108 0.0496078
l 139 140
v 0.838077 0.577476 -0.05
v 0.796047 0.580443 -0.05
l 141 142
v 0.796047 0.580443 -0.05
v 0.779735 0.607942 -0.05
l 143 144
v 0.796047 0.580443 -0.05
v 0.79398 0.579972 0.0496078
l 145 146
v 0.79398 0.579972 0.0496078
v 0.829581 0.578557 0.0496078
l 147 148
v 0.779724 0.608107 0.0496078
v 0.79398 0.579972 0.0496078
l 149 150
v 0.796047 0.580443 -0.05
v 0.79398 0.579972 0.0496078
l 151 152
v 0.605611 0.730723 0.0496078
v 0.624187 0.703394 0.0496078
l 153 154
v 0.606739 0.745443 0.0496078
v 0.605611 0.730723 0.0496078
l 155 156
v 0.60477 0.730464 -0.05
v 0.605611 0.730723 0.0496078
l 157 158
v 0.618341 0.709574 -0.05
v 0.60477 0.730464 -0.05
l 159 160
v 0.60477 0.730464 -0.05
v 0.640688 0.770895 -0.05
l 161 162
v 0.60477 0.730464 -0.05
v 0.605611 0.730723 0.0496078
l 163 164
v 0.60477 0.730464 -0.05
v 0.606739 0.745443 0.0496078
l 165 166
v 0.606739 0.745443 0.0496078
v 0.605611 0.730723 0.0496078
l 167 168
v 0.641222 0.770369 0.0496078
v 0.606739 0.745443 0.0496078
l 169 170
v 0.60477 0.730464 -0.05
v 0.606739 0.745443 0.0496078
l 171 172
v 0.628153 0.836937 -0.05
v 0.57183 0.843196 -0.05
l 173 174
v 0.57183 0.843196 -0.05
v 0.60706 0.888776 -0.05
l 175 176
v 0.57183 0.843196 -0.05
v 0.569642 0.843442 0.0496078
l 177 178
v 0.569642 0.843442 0.0496078
v 0.610455 0.838548 0.0496078
l 179 180
v 0.598575 0.881795 0.0496078
v 0.569642 0.843442 0.0496078
l 181 182
v 0.57183 0.843196 -0.05
v 0.569642 0.843442 0.0496078
l 183 184
v 0.625387 0.918864 0.0496078
v 0.626256 0.893416 0.0496078
l 185 186
v 0.661741 0.913334 0.0496078
v 0.625387 0.918864 0.0496078
l 187 188
v 0.620805 0.918415 -0.05
v 0.625387 0.918864 0.0496078
l 189 190
v 0.630177 0.895471 -0.05
v 0.620805 0.918415 -0.05
l 191 192
v 0.620805 0.918415 -0.05
v 0.641475 0.920759 -0.05
l 193 194
v 0.620805 0.918415 -0.05
v 0.625387 0.918864 0.0496078
l 195 196
v 0.719514 0.907533 -0.05
v 0.715733 0.925848 -0.05
l 197 198
v 0.715733 0.925848 -0.05
v 0.732111 0.942109 -0.05
l 199 200
v 0.715733 0.925848 -0.05
v 0.713598 0.925301 0.0496078
l 201 202
v 0.713598 0.925301 0.0496078
v 0.721623 0.914463 0.0496078
l 203 204
v 0.731635 0.939466 0.0496078
v 0.713598 0.925301 0.0496078
l 205 206
v 0.715733 0.925848 -0.05
v 0.713598 0.925301 0.0496078
l 207 208
v 0.67801 0.957659 0.0496078
v 0.700234 0.948304 0.0496078
l 209 210
v 0.673147 0.975899 0.0496078
v 0.67801 0.957659 0.0496078
l 211 212
v 0.677047 0.958698 -0.05
v 0.67801 0.957659 0.0496078
l 213 214
v 0.698659 0.948372 -0.05
v 0.677047 0.958698 -0.05
l 215 216
v 0.677047 0.958698 -0.05
v 0.667749 0.982083 -0.05
l 217 218
v 0.677047 0.958698 -0.05
v 0.67801 0.957659 0.0496078
l 219 220
v 0.640673 1.01182 0.0496078
v 0.673147 0.975899 0.0496078
l 221 222
v 0.64772 1.07583 0.0496078
v 0.640673 1.01182 0.0496078
l 223 224
v 0.639602 1.01728 -0.05
v 0.640673 1.01182 0.0496078
l 225 226
v 0.667749 0.982083 -0.05
v 0.639602 1.01728 -0.05
l 227 228
v 0.639602 1.01728 -0.05
v 0.645183 1.08511 -0.05
l 229 230
v 0.639602 1.01728 -0.05
v 0.640673 1.01182 0.0496078
l 231 232
