v 0.541479 1.04621 0.0496078
v 0.53948 1.0423 -0.05
v 0.481228 1.05075 -0.05
v 0.480405 1.04633 0.0496078
v 0.464961 1.01197 -0.05
v 0.466215 1.00798 0.0496078
v 0.420156 0.867213 -0.05
v 0.411302 0.868095 0.0496078
v 0.466043 0.810396 0.0496078
v 0.466043 0.810396 -0.05
v 0.409546 0.719585 0.0496078
v 0.417575 0.72316 -0.05
v 0.398798 0.71866 -0.05
v 0.294501 0.654287 0.0496078
v 0.298277 0.653489 -0.05
v 0.228307 0.489642 0.0496078
v 0.227185 0.489713 -0.05
v 0.503547 0.0939738 0.0496078
v 0.51521 0.091669 -0.05
v 0.763583 0.0881479 -0.05
v 0.770818 0.0952108 0.0496078
v 0.777222 0.0914572 -0.05
v 0.796047 0.580443 -0.05
v 0.79398 0.579972 0.0496078
v 0.605611 0.730723 0.0496078
v 0.60477 0.730464 -0.05
v 0.606739 0.745443 0.0496078
v 0.57183 0.843196 -0.05
v 0.569642 0.843442 0.0496078
v 0.625387 0.918864 0.0496078
v 0.620805 0.918415 -0.05
v 0.715733 0.925848 -0.05
v 0.713598 0.925301 0.0496078
v 0.67801 0.957659 0.0496078
v 0.677047 0.958698 -0.05
v 0.640673 1.01182 0.0496078
v 0.639602 1.01728 -0.05
