# Wavefront OBJ file written 2026-09-29T15:54:58
o body_edgeMesh

# points : 187
# lines  : 223

# <points count="187">
v 0.605142 1.0947 -0.05
v 0.557925 1.07087 -0.05
v 0.484828 1.06016 0.0496078
v 0.459303 1.03222 0.0496078
v 0.457903 1.0318 -0.05
v 0.427823 0.885272 0.0496078
v 0.382764 0.872963 -0.05
v 0.376395 0.875129 0.0496078
v 0.358184 0.866338 0.0496078
v 0.358818 0.863901 -0.05
v 0.367729 0.851292 0.0496078
v 0.386146 0.73203 0.0496078
v 0.385861 0.732619 -0.05
v 0.360885 0.732973 0.0496078
v 0.360885 0.732973 -0.05
v 0.28657 0.653054 -0.05
v 0.218304 0.591238 0.0496078
v 0.212754 0.574938 -0.05
v 0.48129 0.0945297 -0.05
v 0.664418 -6.06104e-06 -0.05
v 0.677828 0.00351049 0.0496078
v 0.783302 0.0888673 0.0496078
v 0.97276 0.364878 -0.05
v 0.972431 0.36846 0.0496078
v 0.882152 0.562883 0.0496078
v 0.882334 0.562892 -0.05
v 0.634667 0.695565 -0.05
v 0.684894 0.834699 0.0496078
v 0.684529 0.837612 -0.05
v 0.598575 0.881795 0.0496078
v 0.60706 0.888776 -0.05
v 0.626256 0.893416 0.0496078
v 0.630177 0.895471 -0.05
v 0.715478 0.901717 0.0496078
v 0.719514 0.907533 -0.05
v 0.721623 0.914463 0.0496078
v 0.731635 0.939466 0.0496078
v 0.732111 0.942109 -0.05
v 0.645183 1.08511 -0.05
v 0.640103 1.09584 0.0496078
v 0.541479 1.04621 0.0496078
v 0.53948 1.0423 -0.05
v 0.481228 1.05075 -0.05
v 0.480405 1.04633 0.0496078
v 0.464961 1.01197 -0.05
v 0.466215 1.00798 0.0496078
v 0.420156 0.867213 -0.05
v 0.411302 0.868095 0.0496078
v 0.466043 0.810396 0.0496078
v 0.466043 0.810396 -0.05
v 0.409546 0.719585 0.0496078
v 0.417575 0.72316 -0.05
v 0.398798 0.71866 -0.05
v 0.294501 0.654287 0.0496078
v 0.298277 0.653489 -0.05
v 0.228307 0.489642 0.0496078
v 0.227185 0.489713 -0.05
v 0.503547 0.0939738 0.0496078
v 0.51521 0.091669 -0.05
v 0.763583 0.0881479 -0.05
v 0.770818 0.0952108 0.0496078
v 0.777222 0.0914572 -0.05
v 0.796047 0.580443 -0.05
v 0.79398 0.579972 0.0496078
v 0.605611 0.730723 0.0496078
v 0.60477 0.730464 -0.05
v 0.606739 0.745443 0.0496078
v 0.57183 0.843196 -0.05
v 0.569642 0.843442 0.0496078
v 0.625387 0.918864 0.0496078
v 0.620805 0.918415 -0.05
v 0.715733 0.925848 -0.05
v 0.713598 0.925301 0.0496078
v 0.67801 0.957659 0.0496078
v 0.677047 0.958698 -0.05
v 0.640673 1.01182 0.0496078
v 0.639602 1.01728 -0.05
v 0.563713 1.07567 0.0496078
v 0.607152 1.09584 0.0496078
v 0.518487 1.05014 0.0496078
v 0.51177 1.05231 -0.05
v 0.464343 1.01834 0.0496078
v 0.446127 0.9817 0.0496078
v 0.443954 0.980996 -0.05
v 0.436821 0.957701 -0.05
v 0.428254 0.889704 -0.05
v 0.382335 0.839629 -0.05
v 0.423775 0.823128 0.0496078
v 0.430446 0.822104 -0.05
v 0.448584 0.772878 0.0496078
v 0.441309 0.759721 -0.05
v 0.434774 0.748659 0.0496078
v 0.322643 0.695539 0.0496078
v 0.330033 0.703396 -0.05
v 0.303227 0.6741 -0.05
v 0.268488 0.642451 0.0496078
v 0.253142 0.628877 -0.05
v 0.211596 0.535912 0.0496078
v 0.215339 0.516556 -0.05
v 0.173452 0.486082 0.0496078
v 0.152218 0.48302 -0.05
v 0.104921 0.471682 0.0496078
v 0.0798192 0.458284 -0.05
v 0.0595589 0.443538 0.0496078
v 0.0184018 0.396343 0.0496078
v 0.0156666 0.39347 -0.05
v 0.00153296 0.353214 0.0496078
v 4.44145e-08 0.340649 -0.05
v 0.00338905 0.253666 0.0496078
v 0.00802796 0.227518 -0.05
v 0.0246012 0.16976 0.0496078
v 0.0243654 0.168719 -0.05
v 0.043208 0.143958 0.0496078
v 0.0408875 0.144838 -0.05
v 0.0712508 0.109199 -0.05
v 0.0734939 0.104733 0.0496078
v 0.112469 0.0721068 0.0496078
v 0.135024 0.0526205 -0.05
v 0.151584 0.0388673 0.0496078
v 0.196021 0.0150391 -0.05
v 0.196643 0.0144668 0.0496078
v 0.255189 0.00347855 0.0496078
v 0.259291 0.00331064 -0.05
v 0.322413 0.0170592 0.0496078
v 0.322622 0.0166072 -0.05
v 0.351718 0.0332819 -0.05
v 0.372608 0.053656 0.0496078
v 0.375872 0.0569579 -0.05
v 0.419542 0.0680647 0.0496078
v 0.445334 0.0763796 -0.05
v 0.466911 0.0859732 0.0496078
v 0.549121 0.0484813 0.0496078
v 0.55599 0.0421611 -0.05
v 0.579564 0.0210359 0.0496078
v 0.578168 0.023459 -0.05
v 0.619043 0.00495495 0.0496078
v 0.616888 0.00494571 -0.05
v 0.719731 0.027828 -0.05
v 0.732373 0.037038 0.0496078
v 0.744903 0.0485909 -0.05
v 0.754812 0.0708427 0.0496078
v 0.752806 0.0625851 -0.05
v 0.812303 0.0953786 -0.05
v 0.828273 0.100534 0.0496078
v 0.866806 0.129702 -0.05
v 0.878612 0.144461 0.0496078
v 0.904549 0.196851 -0.05
v 0.90567 0.199187 0.0496078
v 0.920814 0.238444 0.0496078
v 0.91997 0.236696 -0.05
v 0.940872 0.279968 -0.05
v 0.944975 0.291099 0.0496078
v 0.958269 0.320413 -0.05
v 0.963428 0.327097 0.0496078
v 0.961234 0.396754 -0.05
v 0.961587 0.395194 0.0496078
v 0.951585 0.449525 0.0496078
v 0.950277 0.459213 -0.05
v 0.928458 0.509975 0.0496078
v 0.929754 0.507538 -0.05
v 0.838077 0.577476 -0.05
v 0.829581 0.578557 0.0496078
v 0.779724 0.608107 0.0496078
v 0.779735 0.607942 -0.05
v 0.76849 0.627851 0.0496078
v 0.766373 0.629427 -0.05
v 0.737088 0.661693 0.0496078
v 0.736575 0.662143 -0.05
v 0.697716 0.686559 0.0496078
v 0.691673 0.68746 -0.05
v 0.644872 0.692404 0.0496078
v 0.624187 0.703394 0.0496078
v 0.618341 0.709574 -0.05
v 0.640688 0.770895 -0.05
v 0.641222 0.770369 0.0496078
v 0.676686 0.811121 0.0496078
v 0.678431 0.814156 -0.05
v 0.610455 0.838548 0.0496078
v 0.628153 0.836937 -0.05
v 0.641475 0.920759 -0.05
v 0.661741 0.913334 0.0496078
v 0.679855 0.907003 -0.05
v 0.700234 0.948304 0.0496078
v 0.698659 0.948372 -0.05
v 0.673147 0.975899 0.0496078
v 0.667749 0.982083 -0.05
v 0.64772 1.07583 0.0496078
# </points>

# <edges count="223">
l 78 79
l 1 2
l 41 78
l 2 42
l 80 41
l 42 81
l 3 80
l 43 3
l 81 43
l 44 3
l 4 44
l 5 4
l 43 5
l 82 4
l 5 45
l 46 82
l 83 46
l 45 84
l 84 85
l 6 83
l 85 86
l 86 47
l 48 6
l 47 7
l 7 8
l 8 48
l 9 8
l 10 9
l 7 10
l 11 9
l 10 87
l 88 11
l 87 89
l 49 88
l 89 50
l 90 49
l 50 91
l 92 90
l 51 92
l 91 52
l 52 53
l 12 51
l 13 12
l 53 13
l 14 12
l 15 14
l 13 15
l 93 14
l 15 94
l 94 95
l 54 93
l 95 55
l 55 16
l 96 54
l 16 97
l 17 96
l 18 17
l 97 18
l 98 17
l 18 99
l 56 98
l 99 57
l 100 56
l 57 101
l 102 100
l 101 103
l 104 102
l 105 104
l 103 106
l 107 105
l 106 108
l 109 107
l 108 110
l 111 109
l 110 112
l 113 111
l 112 114
l 114 115
l 116 113
l 117 116
l 115 118
l 119 117
l 118 120
l 121 119
l 122 121
l 120 123
l 124 122
l 123 125
l 125 126
l 127 124
l 126 128
l 129 127
l 128 130
l 131 129
l 130 19
l 58 131
l 19 59
l 132 58
l 59 133
l 134 132
l 133 135
l 136 134
l 135 137
l 137 20
l 21 136
l 20 138
l 139 21
l 138 140
l 141 139
l 140 142
l 142 60
l 61 141
l 60 62
l 62 22
l 22 61
l 62 143
l 144 22
l 143 145
l 146 144
l 145 147
l 148 146
l 149 148
l 147 150
l 150 151
l 152 149
l 151 153
l 154 152
l 153 23
l 23 24
l 24 154
l 23 155
l 156 24
l 157 156
l 155 158
l 159 157
l 158 160
l 25 159
l 26 25
l 160 26
l 26 161
l 162 25
l 161 63
l 64 162
l 163 64
l 63 164
l 165 163
l 164 166
l 167 165
l 166 168
l 169 167
l 168 170
l 171 169
l 170 27
l 172 171
l 27 173
l 65 172
l 173 66
l 67 65
l 66 174
l 175 67
l 176 175
l 174 177
l 28 176
l 29 28
l 177 29
l 178 28
l 29 179
l 179 68
l 69 178
l 30 69
l 68 31
l 32 30
l 33 32
l 31 33
l 70 32
l 33 71
l 71 180
l 181 70
l 180 182
l 34 181
l 35 34
l 182 35
l 35 36
l 36 34
l 35 72
l 73 36
l 37 73
l 38 37
l 72 38
l 183 37
l 38 184
l 74 183
l 184 75
l 185 74
l 75 186
l 76 185
l 186 77
l 187 76
l 77 39
l 39 40
l 40 187
l 39 1
l 79 40
l 42 41
l 43 44
l 45 46
l 47 48
l 50 49
l 52 51
l 53 51
l 55 54
l 57 56
l 59 58
l 60 61
l 62 61
l 63 64
l 66 65
l 66 67
l 68 69
l 71 70
l 72 73
l 75 74
l 77 76
# </edges>
