v 0.547925 2.43328e-17 -0.05
v 0.547925 0 0.059585
l 1 2
v 0.547925 0 0.059585
v 0.497369 0.00233736 0.059585
l 3 4
v 0.497369 0.00233736 -0.05
v 0.547925 2.43328e-17 -0.05
l 5 6
v 0.497369 0.00233736 0.059585
v 0.447244 0.00932947 0.059585
l 7 8
v 0.447244 0.00932947 -0.05
v 0.497369 0.00233736 -0.05
l 9 10
v 0.447244 0.00932947 0.059585
v 0.397978 0.0209167 0.059585
l 11 12
v 0.397978 0.0209167 -0.05
v 0.447244 0.00932947 -0.05
l 13 14
v 0.397978 0.0209167 0.059585
v 0.349992 0.0370002 0.059585
l 15 16
v 0.349992 0.0370002 -0.05
v 0.397978 0.0209167 -0.05
l 17 18
v 0.349992 0.0370002 0.059585
v 0.303694 0.0574427 0.059585
l 19 20
v 0.303694 0.0574427 -0.05
v 0.349992 0.0370002 -0.05
l 21 22
v 0.303694 0.0574427 0.059585
v 0.25948 0.0820698 0.059585
l 23 24
v 0.25948 0.0820698 -0.05
v 0.303694 0.0574427 -0.05
l 25 26
v 0.25948 0.0820698 0.059585
v 0.217726 0.110671 0.059585
l 27 28
v 0.217726 0.110671 -0.05
v 0.25948 0.0820698 -0.05
l 29 30
v 0.217726 0.110671 0.059585
v 0.17879 0.143004 0.059585
l 31 32
v 0.17879 0.143004 -0.05
v 0.217726 0.110671 -0.05
l 33 34
v 0.17879 0.143004 0.059585
v 0.143004 0.17879 0.059585
l 35 36
v 0.143004 0.17879 -0.05
v 0.17879 0.143004 -0.05
l 37 38
v 0.143004 0.17879 0.059585
v 0.110671 0.217726 0.059585
l 39 40
v 0.110671 0.217726 -0.05
v 0.143004 0.17879 -0.05
l 41 42
v 0.110671 0.217726 0.059585
v 0.0820698 0.25948 0.059585
l 43 44
v 0.0820698 0.25948 -0.05
v 0.110671 0.217726 -0.05
l 45 46
v 0.0820698 0.25948 0.059585
v 0.0574427 0.303694 0.059585
l 47 48
v 0.0574427 0.303694 -0.05
v 0.0820698 0.25948 -0.05
l 49 50
v 0.0574427 0.303694 0.059585
v 0.0370002 0.349992 0.059585
l 51 52
v 0.0370002 0.349992 -0.05
v 0.0574427 0.303694 -0.05
l 53 54
v 0.0370002 0.349992 0.059585
v 0.0209167 0.397978 0.059585
l 55 56
v 0.0209167 0.397978 -0.05
v 0.0370002 0.349992 -0.05
l 57 58
v 0.0209167 0.397978 0.059585
v 0.00932947 0.447244 0.059585
l 59 60
v 0.00932947 0.447244 -0.05
v 0.0209167 0.397978 -0.05
l 61 62
v 0.00932947 0.447244 0.059585
v 0.00233736 0.497369 0.059585
l 63 64
v 0.00233736 0.497369 -0.05
v 0.00932947 0.447244 -0.05
l 65 66
v 0.00233736 0.497369 0.059585
v 0 0.547925 0.059585
l 67 68
v 0 0.547925 -0.05
v 0.00233736 0.497369 -0.05
l 69 70
v 0 0.547925 0.059585
v 0.00233736 0.598481 0.059585
l 71 72
v 0.00233736 0.598481 -0.05
v 0 0.547925 -0.05
l 73 74
v 0.00233736 0.598481 0.059585
v 0.00932947 0.648606 0.059585
l 75 76
v 0.00932947 0.648606 -0.05
v 0.00233736 0.598481 -0.05
l 77 78
v 0.00932947 0.648606 0.059585
v 0.0209167 0.697872 0.059585
l 79 80
v 0.0209167 0.697872 -0.05
v 0.00932947 0.648606 -0.05
l 81 82
v 0.0209167 0.697872 0.059585
v 0.0370002 0.745858 0.059585
l 83 84
v 0.0370002 0.745858 -0.05
v 0.0209167 0.697872 -0.05
l 85 86
v 0.0370002 0.745858 0.059585
v 0.0574427 0.792156 0.059585
l 87 88
v 0.0574427 0.792156 -0.05
v 0.0370002 0.745858 -0.05
l 89 90
v 0.0574427 0.792156 0.059585
v 0.0820698 0.83637 0.059585
l 91 92
v 0.0820698 0.83637 -0.05
v 0.0574427 0.792156 -0.05
l 93 94
v 0.0820698 0.83637 0.059585
v 0.110671 0.878124 0.059585
l 95 96
v 0.110671 0.878124 -0.05
v 0.0820698 0.83637 -0.05
l 97 98
v 0.110671 0.878124 0.059585
v 0.143004 0.91706 0.059585
l 99 100
v 0.143004 0.91706 -0.05
v 0.110671 0.878124 -0.05
l 101 102
v 0.143004 0.91706 0.059585
v 0.17879 0.952846 0.059585
l 103 104
v 0.17879 0.952846 -0.05
v 0.143004 0.91706 -0.05
l 105 106
v 0.17879 0.952846 0.059585
v 0.217726 0.985179 0.059585
l 107 108
v 0.217726 0.985179 -0.05
v 0.17879 0.952846 -0.05
l 109 110
v 0.217726 0.985179 0.059585
v 0.25948 1.01378 0.059585
l 111 112
v 0.25948 1.01378 -0.05
v 0.217726 0.985179 -0.05
l 113 114
v 0.25948 1.01378 0.059585
v 0.303694 1.03841 0.059585
l 115 116
v 0.303694 1.03841 -0.05
v 0.25948 1.01378 -0.05
l 117 118
v 0.303694 1.03841 0.059585
v 0.349992 1.05885 0.059585
l 119 120
v 0.349992 1.05885 -0.05
v 0.303694 1.03841 -0.05
l 121 122
v 0.349992 1.05885 0.059585
v 0.397978 1.07493 0.059585
l 123 124
v 0.397978 1.07493 -0.05
v 0.349992 1.05885 -0.05
l 125 126
v 0.397978 1.07493 0.059585
v 0.447244 1.08652 0.059585
l 127 128
v 0.447244 1.08652 -0.05
v 0.397978 1.07493 -0.05
l 129 130
v 0.447244 1.08652 0.059585
v 0.497369 1.09351 0.059585
l 131 132
v 0.497369 1.09351 -0.05
v 0.447244 1.08652 -0.05
l 133 134
v 0.497369 1.09351 0.059585
v 0.547925 1.09585 0.059585
l 135 136
v 0.547925 1.09585 0.059585
v 0.547925 1.09585 -0.05
l 137 138
v 0.547925 1.09585 -0.05
v 0.497369 1.09351 -0.05
l 139 140
v 0.547925 2.43328e-17 -0.05
v 0.547925 1.09585 -0.05
l 141 142
v 0.547925 1.09585 0.059585
v 0.547925 0 0.059585
l 143 144
