# Wavefront OBJ file written 2026-09-29T15:44:02
o body_edgeMesh

# points : 70
# lines  : 72

# <points count="70">
v 0.547925 2.43328e-17 -0.05
v 0.547925 0 0.059585
v 0.547925 1.09585 0.059585
v 0.547925 1.09585 -0.05
v 0.497369 0.00233736 0.059585
v 0.497369 0.00233736 -0.05
v 0.447244 0.00932947 0.059585
v 0.447244 0.00932947 -0.05
v 0.397978 0.0209167 0.059585
v 0.397978 0.0209167 -0.05
v 0.349992 0.0370002 0.059585
v 0.349992 0.0370002 -0.05
v 0.303694 0.0574427 0.059585
v 0.303694 0.0574427 -0.05
v 0.25948 0.0820698 0.059585
v 0.25948 0.0820698 -0.05
v 0.217726 0.110671 0.059585
v 0.217726 0.110671 -0.05
v 0.17879 0.143004 0.059585
v 0.17879 0.143004 -0.05
v 0.143004 0.17879 0.059585
v 0.143004 0.17879 -0.05
v 0.110671 0.217726 0.059585
v 0.110671 0.217726 -0.05
v 0.0820698 0.25948 0.059585
v 0.0820698 0.25948 -0.05
v 0.0574427 0.303694 0.059585
v 0.0574427 0.303694 -0.05
v 0.0370002 0.349992 0.059585
v 0.0370002 0.349992 -0.05
v 0.0209167 0.397978 0.059585
v 0.0209167 0.397978 -0.05
v 0.00932947 0.447244 0.059585
v 0.00932947 0.447244 -0.05
v 0.00233736 0.497369 0.059585
v 0.00233736 0.497369 -0.05
v 0 0.547925 0.059585
v 0 0.547925 -0.05
v 0.00233736 0.598481 0.059585
v 0.00233736 0.598481 -0.05
v 0.00932947 0.648606 0.059585
v 0.00932947 0.648606 -0.05
v 0.0209167 0.697872 0.059585
v 0.0209167 0.697872 -0.05
v 0.0370002 0.745858 0.059585
v 0.0370002 0.745858 -0.05
v 0.0574427 0.792156 0.059585
v 0.0574427 0.792156 -0.05
v 0.0820698 0.83637 0.059585
v 0.0820698 0.83637 -0.05
v 0.110671 0.878124 0.059585
v 0.110671 0.878124 -0.05
v 0.143004 0.91706 0.059585
v 0.143004 0.91706 -0.05
v 0.17879 0.952846 0.059585
v 0.17879 0.952846 -0.05
v 0.217726 0.985179 0.059585
v 0.217726 0.985179 -0.05
v 0.25948 1.01378 0.059585
v 0.25948 1.01378 -0.05
v 0.303694 1.03841 0.059585
v 0.303694 1.03841 -0.05
v 0.349992 1.05885 0.059585
v 0.349992 1.05885 -0.05
v 0.397978 1.07493 0.059585
v 0.397978 1.07493 -0.05
v 0.447244 1.08652 0.059585
v 0.447244 1.08652 -0.05
v 0.497369 1.09351 0.059585
v 0.497369 1.09351 -0.05
# </points>

# <edges count="72">
l 1 2
l 2 5
l 6 1
l 5 7
l 8 6
l 7 9
l 10 8
l 9 11
l 12 10
l 11 13
l 14 12
l 13 15
l 16 14
l 15 17
l 18 16
l 17 19
l 20 18
l 19 21
l 22 20
l 21 23
l 24 22
l 23 25
l 26 24
l 25 27
l 28 26
l 27 29
l 30 28
l 29 31
l 32 30
l 31 33
l 34 32
l 33 35
l 36 34
l 35 37
l 38 36
l 37 39
l 40 38
l 39 41
l 42 40
l 41 43
l 44 42
l 43 45
l 46 44
l 45 47
l 48 46
l 47 49
l 50 48
l 49 51
l 52 50
l 51 53
l 54 52
l 53 55
l 56 54
l 55 57
l 58 56
l 57 59
l 60 58
l 59 61
l 62 60
l 61 63
l 64 62
l 63 65
l 66 64
l 65 67
l 68 66
l 67 69
l 70 68
l 69 3
l 3 4
l 4 70
l 1 4
l 3 2
# </edges>
