<?xml version="1.0" encoding="utf-8" standalone="no"?>
<!DOCTYPE svg PUBLIC "-//W3C//DTD SVG 1.1//EN"
  "http://www.w3.org/Graphics/SVG/1.1/DTD/svg11.dtd">
<svg xmlns:xlink="http://www.w3.org/1999/xlink" width="576pt" height="432pt" viewBox="0 0 576 432" xmlns="http://www.w3.org/2000/svg" version="1.1">
 <metadata>
  <rdf:RDF xmlns:dc="http://purl.org/dc/elements/1.1/" xmlns:cc="http://creativecommons.org/ns#" xmlns:rdf="http://www.w3.org/1999/02/22-rdf-syntax-ns#">
   <cc:Work>
    <dc:type rdf:resource="http://purl.org/dc/dcmitype/StillImage"/>
    <dc:date>2026-09-29T16:30:25.125618</dc:date>
    <dc:format>image/svg+xml</dc:format>
    <dc:creator>
     <cc:Agent>
      <dc:title>Matplotlib v3.10.7+dfsg1, https://matplotlib.org/</dc:title>
     </cc:Agent>
    </dc:creator>
   </cc:Work>
  </rdf:RDF>
 </metadata>
 <defs>
  <style type="text/css">*{stroke-linejoin: round; stroke-linecap: butt}</style>
 </defs>
 <g id="figure_1">
  <g id="patch_1">
   <path d="M 0 432 
L 576 432 
L 576 0 
L 0 0 
z
" style="fill: #ffffff"/>
  </g>
  <g id="axes_1">
   <g id="patch_2">
    <path d="M 46.64 390.04 
L 554.04 390.04 
L 554.04 14.76 
L 46.64 14.76 
z
" style="fill: #ffffff"/>
   </g>
   <g id="matplotlib.axis_1">
    <g id="xtick_1">
     <g id="line2d_1">
      <path d="M 46.64 390.04 
L 46.64 14.76 
" clip-path="url(#pffef1c79bb)" style="fill: none; stroke-dasharray: 0.8,1.32; stroke-dashoffset: 0; stroke: #b0b0b0; stroke-opacity: 0.5; stroke-width: 0.8"/>
     </g>
     <g id="line2d_2">
      <defs>
       <path id="mefd5dbaaf8" d="M 0 0 
L 0 3.5 
" style="stroke: #000000; stroke-width: 0.8"/>
      </defs>
      <g>
       <use xlink:href="#mefd5dbaaf8" x="46.64" y="390.04" style="stroke: #000000; stroke-width: 0.8"/>
      </g>
     </g>
     <g id="text_1">
      <!-- 0.00 -->
      <g transform="translate(35.507188 404.638438) scale(0.1 -0.1)">
       <defs>
        <path id="DejaVuSans-30" d="M 2034 4250 
Q 1547 4250 1301 3770 
Q 1056 3291 1056 2328 
Q 1056 1369 1301 889 
Q 1547 409 2034 409 
Q 2525 409 2770 889 
Q 3016 1369 3016 2328 
Q 3016 3291 2770 3770 
Q 2525 4250 2034 4250 
z
M 2034 4750 
Q 2819 4750 3233 4129 
Q 3647 3509 3647 2328 
Q 3647 1150 3233 529 
Q 2819 -91 2034 -91 
Q 1250 -91 836 529 
Q 422 1150 422 2328 
Q 422 3509 836 4129 
Q 1250 4750 2034 4750 
z
" transform="scale(0.015625)"/>
        <path id="DejaVuSans-2e" d="M 684 794 
L 1344 794 
L 1344 0 
L 684 0 
L 684 794 
z
" transform="scale(0.015625)"/>
       </defs>
       <use xlink:href="#DejaVuSans-30"/>
       <use xlink:href="#DejaVuSans-2e" transform="translate(63.623047 0)"/>
       <use xlink:href="#DejaVuSans-30" transform="translate(95.410156 0)"/>
       <use xlink:href="#DejaVuSans-30" transform="translate(159.033203 0)"/>
      </g>
     </g>
    </g>
    <g id="xtick_2">
     <g id="line2d_3">
      <path d="M 148.12 390.04 
L 148.12 14.76 
" clip-path="url(#pffef1c79bb)" style="fill: none; stroke-dasharray: 0.8,1.32; stroke-dashoffset: 0; stroke: #b0b0b0; stroke-opacity: 0.5; stroke-width: 0.8"/>
     </g>
     <g id="line2d_4">
      <g>
       <use xlink:href="#mefd5dbaaf8" x="148.12" y="390.04" style="stroke: #000000; stroke-width: 0.8"/>
      </g>
     </g>
     <g id="text_2">
      <!-- 0.02 -->
      <g transform="translate(136.987188 404.638438) scale(0.1 -0.1)">
       <defs>
        <path id="DejaVuSans-32" d="M 1228 531 
L 3431 531 
L 3431 0 
L 469 0 
L 469 531 
Q 828 903 1448 1529 
Q 2069 2156 2228 2338 
Q 2531 2678 2651 2914 
Q 2772 3150 2772 3378 
Q 2772 3750 2511 3984 
Q 2250 4219 1831 4219 
Q 1534 4219 1204 4116 
Q 875 4013 500 3803 
L 500 4441 
Q 881 4594 1212 4672 
Q 1544 4750 1819 4750 
Q 2544 4750 2975 4387 
Q 3406 4025 3406 3419 
Q 3406 3131 3298 2873 
Q 3191 2616 2906 2266 
Q 2828 2175 2409 1742 
Q 1991 1309 1228 531 
z
" transform="scale(0.015625)"/>
       </defs>
       <use xlink:href="#DejaVuSans-30"/>
       <use xlink:href="#DejaVuSans-2e" transform="translate(63.623047 0)"/>
       <use xlink:href="#DejaVuSans-30" transform="translate(95.410156 0)"/>
       <use xlink:href="#DejaVuSans-32" transform="translate(159.033203 0)"/>
      </g>
     </g>
    </g>
    <g id="xtick_3">
     <g id="line2d_5">
      <path d="M 249.6 390.04 
L 249.6 14.76 
" clip-path="url(#pffef1c79bb)" style="fill: none; stroke-dasharray: 0.8,1.32; stroke-dashoffset: 0; stroke: #b0b0b0; stroke-opacity: 0.5; stroke-width: 0.8"/>
     </g>
     <g id="line2d_6">
      <g>
       <use xlink:href="#mefd5dbaaf8" x="249.6" y="390.04" style="stroke: #000000; stroke-width: 0.8"/>
      </g>
     </g>
     <g id="text_3">
      <!-- 0.04 -->
      <g transform="translate(238.467188 404.638438) scale(0.1 -0.1)">
       <defs>
        <path id="DejaVuSans-34" d="M 2419 4116 
L 825 1625 
L 2419 1625 
L 2419 4116 
z
M 2253 4666 
L 3047 4666 
L 3047 1625 
L 3713 1625 
L 3713 1100 
L 3047 1100 
L 3047 0 
L 2419 0 
L 2419 1100 
L 313 1100 
L 313 1709 
L 2253 4666 
z
" transform="scale(0.015625)"/>
       </defs>
       <use xlink:href="#DejaVuSans-30"/>
       <use xlink:href="#DejaVuSans-2e" transform="translate(63.623047 0)"/>
       <use xlink:href="#DejaVuSans-30" transform="translate(95.410156 0)"/>
       <use xlink:href="#DejaVuSans-34" transform="translate(159.033203 0)"/>
      </g>
     </g>
    </g>
    <g id="xtick_4">
     <g id="line2d_7">
      <path d="M 351.08 390.04 
L 351.08 14.76 
" clip-path="url(#pffef1c79bb)" style="fill: none; stroke-dasharray: 0.8,1.32; stroke-dashoffset: 0; stroke: #b0b0b0; stroke-opacity: 0.5; stroke-width: 0.8"/>
     </g>
     <g id="line2d_8">
      <g>
       <use xlink:href="#mefd5dbaaf8" x="351.08" y="390.04" style="stroke: #000000; stroke-width: 0.8"/>
      </g>
     </g>
     <g id="text_4">
      <!-- 0.06 -->
      <g transform="translate(339.947187 404.638438) scale(0.1 -0.1)">
       <defs>
        <path id="DejaVuSans-36" d="M 2113 2584 
Q 1688 2584 1439 2293 
Q 1191 2003 1191 1497 
Q 1191 994 1439 701 
Q 1688 409 2113 409 
Q 2538 409 2786 701 
Q 3034 994 3034 1497 
Q 3034 2003 2786 2293 
Q 2538 2584 2113 2584 
z
M 3366 4563 
L 3366 3988 
Q 3128 4100 2886 4159 
Q 2644 4219 2406 4219 
Q 1781 4219 1451 3797 
Q 1122 3375 1075 2522 
Q 1259 2794 1537 2939 
Q 1816 3084 2150 3084 
Q 2853 3084 3261 2657 
Q 3669 2231 3669 1497 
Q 3669 778 3244 343 
Q 2819 -91 2113 -91 
Q 1303 -91 875 529 
Q 447 1150 447 2328 
Q 447 3434 972 4092 
Q 1497 4750 2381 4750 
Q 2619 4750 2861 4703 
Q 3103 4656 3366 4563 
z
" transform="scale(0.015625)"/>
       </defs>
       <use xlink:href="#DejaVuSans-30"/>
       <use xlink:href="#DejaVuSans-2e" transform="translate(63.623047 0)"/>
       <use xlink:href="#DejaVuSans-30" transform="translate(95.410156 0)"/>
       <use xlink:href="#DejaVuSans-36" transform="translate(159.033203 0)"/>
      </g>
     </g>
    </g>
    <g id="xtick_5">
     <g id="line2d_9">
      <path d="M 452.56 390.04 
L 452.56 14.76 
" clip-path="url(#pffef1c79bb)" style="fill: none; stroke-dasharray: 0.8,1.32; stroke-dashoffset: 0; stroke: #b0b0b0; stroke-opacity: 0.5; stroke-width: 0.8"/>
     </g>
     <g id="line2d_10">
      <g>
       <use xlink:href="#mefd5dbaaf8" x="452.56" y="390.04" style="stroke: #000000; stroke-width: 0.8"/>
      </g>
     </g>
     <g id="text_5">
      <!-- 0.08 -->
      <g transform="translate(441.427188 404.638438) scale(0.1 -0.1)">
       <defs>
        <path id="DejaVuSans-38" d="M 2034 2216 
Q 1584 2216 1326 1975 
Q 1069 1734 1069 1313 
Q 1069 891 1326 650 
Q 1584 409 2034 409 
Q 2484 409 2743 651 
Q 3003 894 3003 1313 
Q 3003 1734 2745 1975 
Q 2488 2216 2034 2216 
z
M 1403 2484 
Q 997 2584 770 2862 
Q 544 3141 544 3541 
Q 544 4100 942 4425 
Q 1341 4750 2034 4750 
Q 2731 4750 3128 4425 
Q 3525 4100 3525 3541 
Q 3525 3141 3298 2862 
Q 3072 2584 2669 2484 
Q 3125 2378 3379 2068 
Q 3634 1759 3634 1313 
Q 3634 634 3220 271 
Q 2806 -91 2034 -91 
Q 1263 -91 848 271 
Q 434 634 434 1313 
Q 434 1759 690 2068 
Q 947 2378 1403 2484 
z
M 1172 3481 
Q 1172 3119 1398 2916 
Q 1625 2713 2034 2713 
Q 2441 2713 2670 2916 
Q 2900 3119 2900 3481 
Q 2900 3844 2670 4047 
Q 2441 4250 2034 4250 
Q 1625 4250 1398 4047 
Q 1172 3844 1172 3481 
z
" transform="scale(0.015625)"/>
       </defs>
       <use xlink:href="#DejaVuSans-30"/>
       <use xlink:href="#DejaVuSans-2e" transform="translate(63.623047 0)"/>
       <use xlink:href="#DejaVuSans-30" transform="translate(95.410156 0)"/>
       <use xlink:href="#DejaVuSans-38" transform="translate(159.033203 0)"/>
      </g>
     </g>
    </g>
    <g id="xtick_6">
     <g id="line2d_11">
      <path d="M 554.04 390.04 
L 554.04 14.76 
" clip-path="url(#pffef1c79bb)" style="fill: none; stroke-dasharray: 0.8,1.32; stroke-dashoffset: 0; stroke: #b0b0b0; stroke-opacity: 0.5; stroke-width: 0.8"/>
     </g>
     <g id="line2d_12">
      <g>
       <use xlink:href="#mefd5dbaaf8" x="554.04" y="390.04" style="stroke: #000000; stroke-width: 0.8"/>
      </g>
     </g>
     <g id="text_6">
      <!-- 0.10 -->
      <g transform="translate(542.907188 404.638438) scale(0.1 -0.1)">
       <defs>
        <path id="DejaVuSans-31" d="M 794 531 
L 1825 531 
L 1825 4091 
L 703 3866 
L 703 4441 
L 1819 4666 
L 2450 4666 
L 2450 531 
L 3481 531 
L 3481 0 
L 794 0 
L 794 531 
z
" transform="scale(0.015625)"/>
       </defs>
       <use xlink:href="#DejaVuSans-30"/>
       <use xlink:href="#DejaVuSans-2e" transform="translate(63.623047 0)"/>
       <use xlink:href="#DejaVuSans-31" transform="translate(95.410156 0)"/>
       <use xlink:href="#DejaVuSans-30" transform="translate(159.033203 0)"/>
      </g>
     </g>
    </g>
    <g id="text_7">
     <!-- Time [s] -->
     <g transform="translate(280.011094 418.316562) scale(0.1 -0.1)">
      <defs>
       <path id="DejaVuSans-54" d="M -19 4666 
L 3928 4666 
L 3928 4134 
L 2272 4134 
L 2272 0 
L 1638 0 
L 1638 4134 
L -19 4134 
L -19 4666 
z
" transform="scale(0.015625)"/>
       <path id="DejaVuSans-69" d="M 603 3500 
L 1178 3500 
L 1178 0 
L 603 0 
L 603 3500 
z
M 603 4863 
L 1178 4863 
L 1178 4134 
L 603 4134 
L 603 4863 
z
" transform="scale(0.015625)"/>
       <path id="DejaVuSans-6d" d="M 3328 2828 
Q 3544 3216 3844 3400 
Q 4144 3584 4550 3584 
Q 5097 3584 5394 3201 
Q 5691 2819 5691 2113 
L 5691 0 
L 5113 0 
L 5113 2094 
Q 5113 2597 4934 2840 
Q 4756 3084 4391 3084 
Q 3944 3084 3684 2787 
Q 3425 2491 3425 1978 
L 3425 0 
L 2847 0 
L 2847 2094 
Q 2847 2600 2669 2842 
Q 2491 3084 2119 3084 
Q 1678 3084 1418 2786 
Q 1159 2488 1159 1978 
L 1159 0 
L 581 0 
L 581 3500 
L 1159 3500 
L 1159 2956 
Q 1356 3278 1631 3431 
Q 1906 3584 2284 3584 
Q 2666 3584 2933 3390 
Q 3200 3197 3328 2828 
z
" transform="scale(0.015625)"/>
       <path id="DejaVuSans-65" d="M 3597 1894 
L 3597 1613 
L 953 1613 
Q 991 1019 1311 708 
Q 1631 397 2203 397 
Q 2534 397 2845 478 
Q 3156 559 3463 722 
L 3463 178 
Q 3153 47 2828 -22 
Q 2503 -91 2169 -91 
Q 1331 -91 842 396 
Q 353 884 353 1716 
Q 353 2575 817 3079 
Q 1281 3584 2069 3584 
Q 2775 3584 3186 3129 
Q 3597 2675 3597 1894 
z
M 3022 2063 
Q 3016 2534 2758 2815 
Q 2500 3097 2075 3097 
Q 1594 3097 1305 2825 
Q 1016 2553 972 2059 
L 3022 2063 
z
" transform="scale(0.015625)"/>
       <path id="DejaVuSans-20" transform="scale(0.015625)"/>
       <path id="DejaVuSans-5b" d="M 550 4863 
L 1875 4863 
L 1875 4416 
L 1125 4416 
L 1125 -397 
L 1875 -397 
L 1875 -844 
L 550 -844 
L 550 4863 
z
" transform="scale(0.015625)"/>
       <path id="DejaVuSans-73" d="M 2834 3397 
L 2834 2853 
Q 2591 2978 2328 3040 
Q 2066 3103 1784 3103 
Q 1356 3103 1142 2972 
Q 928 2841 928 2578 
Q 928 2378 1081 2264 
Q 1234 2150 1697 2047 
L 1894 2003 
Q 2506 1872 2764 1633 
Q 3022 1394 3022 966 
Q 3022 478 2636 193 
Q 2250 -91 1575 -91 
Q 1294 -91 989 -36 
Q 684 19 347 128 
L 347 722 
Q 666 556 975 473 
Q 1284 391 1588 391 
Q 1994 391 2212 530 
Q 2431 669 2431 922 
Q 2431 1156 2273 1281 
Q 2116 1406 1581 1522 
L 1381 1569 
Q 847 1681 609 1914 
Q 372 2147 372 2553 
Q 372 3047 722 3315 
Q 1072 3584 1716 3584 
Q 2034 3584 2315 3537 
Q 2597 3491 2834 3397 
z
" transform="scale(0.015625)"/>
       <path id="DejaVuSans-5d" d="M 1947 4863 
L 1947 -844 
L 622 -844 
L 622 -397 
L 1369 -397 
L 1369 4416 
L 622 4416 
L 622 4863 
L 1947 4863 
z
" transform="scale(0.015625)"/>
      </defs>
      <use xlink:href="#DejaVuSans-54"/>
      <use xlink:href="#DejaVuSans-69" transform="translate(57.958984 0)"/>
      <use xlink:href="#DejaVuSans-6d" transform="translate(85.742188 0)"/>
      <use xlink:href="#DejaVuSans-65" transform="translate(183.154297 0)"/>
      <use xlink:href="#DejaVuSans-20" transform="translate(244.677734 0)"/>
      <use xlink:href="#DejaVuSans-5b" transform="translate(276.464844 0)"/>
      <use xlink:href="#DejaVuSans-73" transform="translate(315.478516 0)"/>
      <use xlink:href="#DejaVuSans-5d" transform="translate(367.578125 0)"/>
     </g>
    </g>
   </g>
   <g id="matplotlib.axis_2">
    <g id="ytick_1">
     <g id="line2d_13">
      <path d="M 46.64 390.04 
L 554.04 390.04 
" clip-path="url(#pffef1c79bb)" style="fill: none; stroke-dasharray: 0.8,1.32; stroke-dashoffset: 0; stroke: #b0b0b0; stroke-opacity: 0.5; stroke-width: 0.8"/>
     </g>
     <g id="line2d_14">
      <defs>
       <path id="m658984e8a6" d="M 0 0 
L -3.5 0 
" style="stroke: #000000; stroke-width: 0.8"/>
      </defs>
      <g>
       <use xlink:href="#m658984e8a6" x="46.64" y="390.04" style="stroke: #000000; stroke-width: 0.8"/>
      </g>
     </g>
     <g id="text_8">
      <!-- −2 -->
      <g transform="translate(24.897813 393.839219) scale(0.1 -0.1)">
       <defs>
        <path id="DejaVuSans-2212" d="M 678 2272 
L 4684 2272 
L 4684 1741 
L 678 1741 
L 678 2272 
z
" transform="scale(0.015625)"/>
       </defs>
       <use xlink:href="#DejaVuSans-2212"/>
       <use xlink:href="#DejaVuSans-32" transform="translate(83.789062 0)"/>
      </g>
     </g>
    </g>
    <g id="ytick_2">
     <g id="line2d_15">
      <path d="M 46.64 327.493333 
L 554.04 327.493333 
" clip-path="url(#pffef1c79bb)" style="fill: none; stroke-dasharray: 0.8,1.32; stroke-dashoffset: 0; stroke: #b0b0b0; stroke-opacity: 0.5; stroke-width: 0.8"/>
     </g>
     <g id="line2d_16">
      <g>
       <use xlink:href="#m658984e8a6" x="46.64" y="327.493333" style="stroke: #000000; stroke-width: 0.8"/>
      </g>
     </g>
     <g id="text_9">
      <!-- −1 -->
      <g transform="translate(24.897813 331.292552) scale(0.1 -0.1)">
       <use xlink:href="#DejaVuSans-2212"/>
       <use xlink:href="#DejaVuSans-31" transform="translate(83.789062 0)"/>
      </g>
     </g>
    </g>
    <g id="ytick_3">
     <g id="line2d_17">
      <path d="M 46.64 264.946667 
L 554.04 264.946667 
" clip-path="url(#pffef1c79bb)" style="fill: none; stroke-dasharray: 0.8,1.32; stroke-dashoffset: 0; stroke: #b0b0b0; stroke-opacity: 0.5; stroke-width: 0.8"/>
     </g>
     <g id="line2d_18">
      <g>
       <use xlink:href="#m658984e8a6" x="46.64" y="264.946667" style="stroke: #000000; stroke-width: 0.8"/>
      </g>
     </g>
     <g id="text_10">
      <!-- 0 -->
      <g transform="translate(33.2775 268.745885) scale(0.1 -0.1)">
       <use xlink:href="#DejaVuSans-30"/>
      </g>
     </g>
    </g>
    <g id="ytick_4">
     <g id="line2d_19">
      <path d="M 46.64 202.4 
L 554.04 202.4 
" clip-path="url(#pffef1c79bb)" style="fill: none; stroke-dasharray: 0.8,1.32; stroke-dashoffset: 0; stroke: #b0b0b0; stroke-opacity: 0.5; stroke-width: 0.8"/>
     </g>
     <g id="line2d_20">
      <g>
       <use xlink:href="#m658984e8a6" x="46.64" y="202.4" style="stroke: #000000; stroke-width: 0.8"/>
      </g>
     </g>
     <g id="text_11">
      <!-- 1 -->
      <g transform="translate(33.2775 206.199219) scale(0.1 -0.1)">
       <use xlink:href="#DejaVuSans-31"/>
      </g>
     </g>
    </g>
    <g id="ytick_5">
     <g id="line2d_21">
      <path d="M 46.64 139.853333 
L 554.04 139.853333 
" clip-path="url(#pffef1c79bb)" style="fill: none; stroke-dasharray: 0.8,1.32; stroke-dashoffset: 0; stroke: #b0b0b0; stroke-opacity: 0.5; stroke-width: 0.8"/>
     </g>
     <g id="line2d_22">
      <g>
       <use xlink:href="#m658984e8a6" x="46.64" y="139.853333" style="stroke: #000000; stroke-width: 0.8"/>
      </g>
     </g>
     <g id="text_12">
      <!-- 2 -->
      <g transform="translate(33.2775 143.652552) scale(0.1 -0.1)">
       <use xlink:href="#DejaVuSans-32"/>
      </g>
     </g>
    </g>
    <g id="ytick_6">
     <g id="line2d_23">
      <path d="M 46.64 77.306667 
L 554.04 77.306667 
" clip-path="url(#pffef1c79bb)" style="fill: none; stroke-dasharray: 0.8,1.32; stroke-dashoffset: 0; stroke: #b0b0b0; stroke-opacity: 0.5; stroke-width: 0.8"/>
     </g>
     <g id="line2d_24">
      <g>
       <use xlink:href="#m658984e8a6" x="46.64" y="77.306667" style="stroke: #000000; stroke-width: 0.8"/>
      </g>
     </g>
     <g id="text_13">
      <!-- 3 -->
      <g transform="translate(33.2775 81.105885) scale(0.1 -0.1)">
       <defs>
        <path id="DejaVuSans-33" d="M 2597 2516 
Q 3050 2419 3304 2112 
Q 3559 1806 3559 1356 
Q 3559 666 3084 287 
Q 2609 -91 1734 -91 
Q 1441 -91 1130 -33 
Q 819 25 488 141 
L 488 750 
Q 750 597 1062 519 
Q 1375 441 1716 441 
Q 2309 441 2620 675 
Q 2931 909 2931 1356 
Q 2931 1769 2642 2001 
Q 2353 2234 1838 2234 
L 1294 2234 
L 1294 2753 
L 1863 2753 
Q 2328 2753 2575 2939 
Q 2822 3125 2822 3475 
Q 2822 3834 2567 4026 
Q 2313 4219 1838 4219 
Q 1578 4219 1281 4162 
Q 984 4106 628 3988 
L 628 4550 
Q 988 4650 1302 4700 
Q 1616 4750 1894 4750 
Q 2613 4750 3031 4423 
Q 3450 4097 3450 3541 
Q 3450 3153 3228 2886 
Q 3006 2619 2597 2516 
z
" transform="scale(0.015625)"/>
       </defs>
       <use xlink:href="#DejaVuSans-33"/>
      </g>
     </g>
    </g>
    <g id="ytick_7">
     <g id="line2d_25">
      <path d="M 46.64 14.76 
L 554.04 14.76 
" clip-path="url(#pffef1c79bb)" style="fill: none; stroke-dasharray: 0.8,1.32; stroke-dashoffset: 0; stroke: #b0b0b0; stroke-opacity: 0.5; stroke-width: 0.8"/>
     </g>
     <g id="line2d_26">
      <g>
       <use xlink:href="#m658984e8a6" x="46.64" y="14.76" style="stroke: #000000; stroke-width: 0.8"/>
      </g>
     </g>
     <g id="text_14">
      <!-- 4 -->
      <g transform="translate(33.2775 18.559219) scale(0.1 -0.1)">
       <use xlink:href="#DejaVuSans-34"/>
      </g>
     </g>
    </g>
    <g id="text_15">
     <!-- Coefficient -->
     <g transform="translate(18.818125 229.280469) rotate(-90) scale(0.1 -0.1)">
      <defs>
       <path id="DejaVuSans-43" d="M 4122 4306 
L 4122 3641 
Q 3803 3938 3442 4084 
Q 3081 4231 2675 4231 
Q 1875 4231 1450 3742 
Q 1025 3253 1025 2328 
Q 1025 1406 1450 917 
Q 1875 428 2675 428 
Q 3081 428 3442 575 
Q 3803 722 4122 1019 
L 4122 359 
Q 3791 134 3420 21 
Q 3050 -91 2638 -91 
Q 1578 -91 968 557 
Q 359 1206 359 2328 
Q 359 3453 968 4101 
Q 1578 4750 2638 4750 
Q 3056 4750 3426 4639 
Q 3797 4528 4122 4306 
z
" transform="scale(0.015625)"/>
       <path id="DejaVuSans-6f" d="M 1959 3097 
Q 1497 3097 1228 2736 
Q 959 2375 959 1747 
Q 959 1119 1226 758 
Q 1494 397 1959 397 
Q 2419 397 2687 759 
Q 2956 1122 2956 1747 
Q 2956 2369 2687 2733 
Q 2419 3097 1959 3097 
z
M 1959 3584 
Q 2709 3584 3137 3096 
Q 3566 2609 3566 1747 
Q 3566 888 3137 398 
Q 2709 -91 1959 -91 
Q 1206 -91 779 398 
Q 353 888 353 1747 
Q 353 2609 779 3096 
Q 1206 3584 1959 3584 
z
" transform="scale(0.015625)"/>
       <path id="DejaVuSans-66" d="M 2375 4863 
L 2375 4384 
L 1825 4384 
Q 1516 4384 1395 4259 
Q 1275 4134 1275 3809 
L 1275 3500 
L 2222 3500 
L 2222 3053 
L 1275 3053 
L 1275 0 
L 697 0 
L 697 3053 
L 147 3053 
L 147 3500 
L 697 3500 
L 697 3744 
Q 697 4328 969 4595 
Q 1241 4863 1831 4863 
L 2375 4863 
z
" transform="scale(0.015625)"/>
       <path id="DejaVuSans-63" d="M 3122 3366 
L 3122 2828 
Q 2878 2963 2633 3030 
Q 2388 3097 2138 3097 
Q 1578 3097 1268 2742 
Q 959 2388 959 1747 
Q 959 1106 1268 751 
Q 1578 397 2138 397 
Q 2388 397 2633 464 
Q 2878 531 3122 666 
L 3122 134 
Q 2881 22 2623 -34 
Q 2366 -91 2075 -91 
Q 1284 -91 818 406 
Q 353 903 353 1747 
Q 353 2603 823 3093 
Q 1294 3584 2113 3584 
Q 2378 3584 2631 3529 
Q 2884 3475 3122 3366 
z
" transform="scale(0.015625)"/>
       <path id="DejaVuSans-6e" d="M 3513 2113 
L 3513 0 
L 2938 0 
L 2938 2094 
Q 2938 2591 2744 2837 
Q 2550 3084 2163 3084 
Q 1697 3084 1428 2787 
Q 1159 2491 1159 1978 
L 1159 0 
L 581 0 
L 581 3500 
L 1159 3500 
L 1159 2956 
Q 1366 3272 1645 3428 
Q 1925 3584 2291 3584 
Q 2894 3584 3203 3211 
Q 3513 2838 3513 2113 
z
" transform="scale(0.015625)"/>
       <path id="DejaVuSans-74" d="M 1172 4494 
L 1172 3500 
L 2356 3500 
L 2356 3053 
L 1172 3053 
L 1172 1153 
Q 1172 725 1289 603 
Q 1406 481 1766 481 
L 2356 481 
L 2356 0 
L 1766 0 
Q 1100 0 847 248 
Q 594 497 594 1153 
L 594 3053 
L 172 3053 
L 172 3500 
L 594 3500 
L 594 4494 
L 1172 4494 
z
" transform="scale(0.015625)"/>
      </defs>
      <use xlink:href="#DejaVuSans-43"/>
      <use xlink:href="#DejaVuSans-6f" transform="translate(69.824219 0)"/>
      <use xlink:href="#DejaVuSans-65" transform="translate(131.005859 0)"/>
      <use xlink:href="#DejaVuSans-66" transform="translate(192.529297 0)"/>
      <use xlink:href="#DejaVuSans-66" transform="translate(227.734375 0)"/>
      <use xlink:href="#DejaVuSans-69" transform="translate(262.939453 0)"/>
      <use xlink:href="#DejaVuSans-63" transform="translate(290.722656 0)"/>
      <use xlink:href="#DejaVuSans-69" transform="translate(345.703125 0)"/>
      <use xlink:href="#DejaVuSans-65" transform="translate(373.486328 0)"/>
      <use xlink:href="#DejaVuSans-6e" transform="translate(435.009766 0)"/>
      <use xlink:href="#DejaVuSans-74" transform="translate(498.388672 0)"/>
     </g>
    </g>
   </g>
   <g id="line2d_27">
    <path d="M 47.117934 -1 
L 47.118368 433 
M 47.341038 433 
L 47.365985 -1 
M 47.616217 -1 
L 47.745485 72.862663 
L 47.862764 54.985825 
L 48.205322 108.06374 
L 48.428086 118.061074 
L 48.75743 133.345916 
L 49.084662 141.994118 
L 49.193866 142.834182 
L 49.523667 148.993778 
L 49.746537 152.024977 
L 49.972783 154.760331 
L 50.437983 159.164554 
L 51.046865 163.459258 
L 52.086683 167.424967 
L 52.358123 167.523728 
L 52.772101 168.959737 
L 52.911652 168.931028 
L 53.051867 169.193787 
L 53.192634 169.090648 
L 53.475519 170.500575 
L 53.901936 171.263018 
L 54.18655 171.214732 
L 54.612602 171.05799 
L 54.895563 171.299608 
L 55.317932 170.65913 
L 55.598073 173.07168 
L 55.877078 172.991683 
L 56.155071 173.336565 
L 57.948469 176.448637 
L 58.086234 176.332113 
L 58.361917 176.663798 
L 58.776133 177.364258 
L 59.468734 178.278815 
L 59.607658 178.29464 
L 60.304162 179.302579 
L 61.143971 180.413658 
L 61.565329 180.755101 
L 61.705996 181.086223 
L 61.846743 181.093103 
L 64.39408 184.944038 
L 64.678841 184.341526 
L 65.678666 185.939406 
L 66.108898 186.156318 
L 66.396297 186.653564 
L 66.54023 186.50364 
L 67.117239 187.072376 
L 67.261855 186.571002 
L 67.696522 187.95466 
L 67.841699 188.2769 
L 67.98705 188.044977 
L 68.278187 188.312176 
L 68.423973 188.715415 
L 68.569936 188.666941 
L 69.448928 189.230862 
L 69.890671 189.407369 
L 70.18602 190.180696 
L 70.482046 190.308166 
L 70.630331 190.258941 
L 71.225298 191.564978 
L 71.823213 191.538771 
L 72.876897 192.343622 
L 73.028253 192.698949 
L 73.179801 192.630211 
L 73.33154 192.037206 
L 73.483519 191.891847 
L 73.788054 192.2807 
L 73.94066 192.242797 
L 74.553229 192.548087 
L 74.706911 192.437504 
L 75.015016 192.833675 
L 75.16939 192.826357 
L 76.412979 193.588488 
L 78.626958 194.441437 
L 79.752621 194.37201 
L 79.914493 194.706885 
L 80.727806 194.684181 
L 80.8913 194.662414 
L 81.219022 194.728088 
L 81.712687 194.851681 
L 82.208773 194.845614 
L 82.374677 194.621446 
L 82.540873 194.598116 
L 82.874089 194.313029 
L 84.049084 194.442125 
L 84.218085 194.848053 
L 84.387329 193.865007 
L 84.726674 193.927303 
L 85.067189 194.065219 
L 85.58004 193.689438 
L 86.440363 193.640902 
L 86.786477 194.095054 
L 86.959919 193.849683 
L 87.13362 193.841177 
L 87.481928 194.058839 
L 87.656473 194.014368 
L 88.006348 193.427618 
L 88.35741 193.488601 
L 88.533338 193.457265 
L 88.885995 193.30265 
L 89.239724 193.22897 
L 89.416994 193.502924 
L 89.594466 193.523565 
L 90.307082 193.257929 
L 90.844226 193.013246 
L 91.023829 193.253238 
L 94.666445 192.600438 
L 95.035791 192.873392 
L 95.220798 192.680436 
L 95.40603 192.161048 
L 95.591487 192.03558 
L 96.52201 192.278949 
L 96.708752 192.187068 
L 97.270202 192.462273 
L 97.457708 192.714461 
L 97.833423 191.404296 
L 98.965062 191.737357 
L 99.154363 191.505559 
L 100.293795 191.483105 
L 100.484288 191.466843 
L 100.675015 191.613515 
L 100.865909 191.140849 
L 101.05696 190.997555 
L 101.248169 190.552598 
L 101.631083 190.842564 
L 102.014642 190.888724 
L 102.783719 190.7064 
L 103.169246 190.476791 
L 103.362256 190.063671 
L 103.748606 191.361639 
L 105.105662 190.795592 
L 105.494686 190.790776 
L 106.079155 190.775514 
L 106.860424 191.040337 
L 107.056042 191.37246 
L 107.447704 189.838315 
L 108.428884 189.676507 
L 108.625532 190.248934 
L 109.019096 190.134411 
L 109.610354 189.867274 
L 110.202663 189.574618 
L 110.79594 189.274895 
L 111.191961 189.053167 
L 111.390192 189.103955 
L 111.588514 189.337942 
L 111.786923 188.553607 
L 112.184004 188.262264 
L 112.780483 188.050606 
L 112.979516 187.89155 
L 113.17864 188.247941 
L 114.775159 187.557488 
L 114.975186 187.186086 
L 115.17531 187.551046 
L 115.976702 187.223364 
L 117.785228 186.496697 
L 118.188144 186.616661 
L 118.591339 185.387307 
L 120.207485 185.060125 
L 120.814995 184.891875 
L 122.845209 184.370486 
L 123.252285 184.391689 
L 123.65955 184.364231 
L 123.863332 184.531293 
L 124.067205 184.971184 
L 124.27118 184.271474 
L 124.47515 183.991453 
L 124.679221 183.9042 
L 124.883384 183.266224 
L 125.087648 183.105667 
L 125.496368 183.081336 
L 126.110033 182.961497 
L 126.519439 182.887504 
L 126.929236 182.694172 
L 127.33923 182.561573 
L 128.982364 181.846227 
L 129.393946 181.510352 
L 129.599783 180.711631 
L 129.805722 182.388319 
L 130.011762 182.384066 
L 130.630181 182.065078 
L 130.83652 182.030552 
L 131.042859 182.111175 
L 131.2493 181.938046 
L 131.455842 181.462754 
L 132.903252 181.593163 
L 133.110301 181.736833 
L 133.524603 181.060891 
L 134.146564 181.159215 
L 134.35402 181.375814 
L 134.561582 181.150771 
L 134.769139 180.356115 
L 135.184568 180.257542 
L 135.808177 180.341542 
L 136.016146 180.317774 
L 136.4323 180.594293 
L 136.640476 180.14796 
L 138.099606 180.153839 
L 138.30831 179.946497 
L 138.517115 180.157154 
L 138.72592 180.044195 
L 138.934827 179.802327 
L 139.352757 179.770741 
L 139.77089 179.643146 
L 140.189348 180.017926 
L 140.398676 180.255415 
L 141.236434 179.959569 
L 141.655734 179.800263 
L 142.075252 179.455819 
L 142.285118 180.515672 
L 142.494984 180.646019 
L 142.914923 180.654463 
L 143.335086 180.396771 
L 144.386449 180.424917 
L 144.596853 180.547696 
L 144.807363 180.223079 
L 145.017873 180.124505 
L 145.22849 179.784251 
L 145.64984 180.075468 
L 145.860568 180.077345 
L 146.071403 179.958193 
L 146.493184 180.312333 
L 146.704131 180.70031 
L 147.126242 180.936924 
L 147.337407 180.450936 
L 147.548566 180.425605 
L 147.759842 180.571714 
L 147.971119 179.960007 
L 148.393773 180.131698 
L 149.239756 180.546007 
L 149.451357 180.051013 
L 150.298334 180.273741 
L 150.934035 180.750222 
L 151.146083 181.075652 
L 151.358135 180.543067 
L 151.994618 180.664345 
L 153.056317 180.863807 
L 153.268816 180.723514 
L 153.481315 180.335913 
L 153.693926 181.466444 
L 154.119147 181.717256 
L 154.544597 181.773798 
L 154.757431 182.067142 
L 154.97027 181.393577 
L 155.39606 181.500782 
L 156.248203 181.830778 
L 157.741141 182.143762 
L 157.954549 182.073647 
L 158.595121 182.190484 
L 160.305155 182.580588 
L 160.733127 183.195296 
L 161.803639 183.264911 
L 162.232083 183.49871 
L 162.660755 183.93047 
L 162.875091 183.183162 
L 163.304001 183.640253 
L 163.518453 183.232449 
L 163.733028 183.074018 
L 164.376863 183.02642 
L 164.591554 183.935098 
L 165.021053 183.903199 
L 165.450668 183.863795 
L 166.095452 183.699172 
L 166.525544 183.874991 
L 166.740596 183.885311 
L 166.955759 183.705052 
L 167.170927 184.032045 
L 167.386095 184.109541 
L 167.816664 184.063381 
L 168.462762 184.076516 
L 168.893697 184.227191 
L 169.540398 184.181595 
L 171.48268 184.431906 
L 172.346975 184.47694 
L 173.861016 184.487072 
L 174.727153 184.379054 
L 175.160406 184.675588 
L 175.377158 184.184409 
L 175.593904 184.847591 
L 176.027533 185.100468 
L 176.244406 184.638561 
L 176.895278 184.655573 
L 177.329278 184.847216 
L 177.546399 184.432282 
L 177.980652 184.230256 
L 178.197901 184.527915 
L 178.415149 184.495016 
L 178.849773 185.051619 
L 179.067153 185.072134 
L 179.284528 184.782043 
L 179.937029 184.754397 
L 184.078469 184.495829 
L 184.515259 184.53392 
L 185.389484 184.475314 
L 186.483144 184.36617 
L 187.139887 184.337523 
L 187.577976 184.124114 
L 187.797021 184.51009 
L 188.235374 184.422024 
L 188.673859 184.209553 
L 189.112471 184.520973 
L 189.331911 184.117484 
L 189.990359 183.998145 
L 190.429635 184.088463 
L 190.649339 183.770538 
L 191.08888 183.672777 
L 192.188466 183.608292 
L 192.408571 183.37099 
L 193.509497 183.245709 
L 193.950245 183.374492 
L 194.391257 183.171278 
L 195.053054 183.052502 
L 196.599056 182.734577 
L 197.041159 182.598726 
L 197.483535 182.545436 
L 198.147514 182.386881 
L 199.476851 182.052756 
L 200.808127 181.678102 
L 203.253977 181.102923 
L 203.476701 181.183733 
L 203.922284 180.701185 
L 204.591017 180.566898 
L 204.814019 180.691428 
L 205.037169 180.438552 
L 205.260313 180.451499 
L 205.706754 180.202501 
L 205.930046 180.244344 
L 206.153479 180.111058 
L 206.376913 179.727646 
L 206.600488 179.939179 
L 207.271368 180.124693 
L 207.718955 179.711009 
L 208.166685 179.613374 
L 212.433427 178.338172 
L 212.883947 178.111816 
L 215.366514 177.313845 
L 216.723925 176.902789 
L 217.403694 176.647849 
L 217.857229 176.499238 
L 218.311067 176.477972 
L 218.538068 176.082802 
L 218.765064 176.084866 
L 219.219364 175.793586 
L 220.356513 175.691197 
L 221.49552 175.154422 
L 221.723601 175.262878 
L 225.611107 173.94896 
L 226.069807 173.702964 
L 226.528826 173.689454 
L 227.447834 173.352703 
L 229.059261 172.920693 
L 231.830477 172.122285 
L 232.061947 172.106335 
L 232.7567 171.768083 
L 234.148544 171.54942 
L 234.380852 171.454036 
L 234.613165 171.211042 
L 235.776237 170.901499 
L 236.475039 170.793668 
L 236.941359 170.573191 
L 237.408025 170.424205 
L 237.875031 170.232187 
L 238.108537 170.191281 
L 238.575893 169.941282 
L 239.277617 170.099901 
L 240.917879 169.5301 
L 242.092205 169.209361 
L 242.797796 168.978439 
L 243.033229 169.07007 
L 247.522283 168.143066 
L 247.759341 168.154136 
L 248.708681 167.7028 
L 249.183907 167.749397 
L 250.611806 167.491017 
L 251.804343 167.35429 
L 254.675969 166.849913 
L 255.155715 166.737767 
L 258.766262 166.352167 
L 259.249129 166.203431 
L 260.458081 166.091347 
L 260.942343 166.072208 
L 262.64016 165.998153 
L 263.126026 165.853232 
L 263.612303 165.915904 
L 268.495003 165.631066 
L 268.985212 165.54494 
L 269.230525 165.43492 
L 269.966889 165.659525 
L 270.458367 165.617869 
L 270.950052 165.537121 
L 271.934718 165.556636 
L 272.427474 165.534494 
L 272.920667 165.461753 
L 275.639748 165.449618 
L 276.631162 165.571459 
L 277.127419 165.442363 
L 282.609658 165.435921 
L 282.859821 165.383444 
L 283.36062 165.540937 
L 284.112272 165.552695 
L 285.617916 165.571522 
L 287.630224 165.664779 
L 287.88227 165.595853 
L 288.386356 165.741899 
L 289.143204 165.711689 
L 289.64825 165.644014 
L 293.192566 165.76723 
L 295.734462 165.923847 
L 296.753671 165.916654 
L 297.263654 165.873622 
L 298.029387 165.98114 
L 298.795885 165.903332 
L 301.100004 166.019168 
L 301.612808 165.934042 
L 306.759792 166.104107 
L 307.017912 166.049629 
L 307.534694 166.184104 
L 309.863756 166.207934 
L 321.609838 166.105545 
L 322.662155 166.073647 
L 322.925379 166.153394 
L 323.715669 166.114802 
L 324.506858 166.169843 
L 325.298656 166.106108 
L 328.473508 165.980765 
L 329.269005 165.96075 
L 330.331125 165.888821 
L 331.660513 165.882566 
L 338.07205 165.397079 
L 338.340333 165.320209 
L 339.145521 165.394452 
L 343.453935 165.16697 
L 346.158286 164.956813 
L 347.51416 164.826091 
L 348.600428 164.70425 
L 352.140735 164.459317 
L 352.687144 164.304201 
L 354.601823 164.179733 
L 355.149729 164.170289 
L 356.246682 164.109181 
L 363.414554 163.430237 
L 366.189337 163.198877 
L 367.023817 163.071719 
L 368.695269 162.857247 
L 369.253536 162.884642 
L 369.811803 162.760675 
L 370.370917 162.813527 
L 372.049969 162.630077 
L 373.171633 162.589109 
L 375.138914 162.374949 
L 376.265408 162.258425 
L 379.371249 162.027127 
L 379.654343 162.03407 
L 380.22053 161.904223 
L 382.490841 161.690501 
L 382.774863 161.621575 
L 383.343851 161.664732 
L 406.775852 160.001929 
L 407.363736 159.92975 
L 408.836388 159.819355 
L 409.131517 159.870268 
L 409.721776 159.744737 
L 411.494981 159.70527 
L 418.030613 159.260813 
L 418.925408 159.23911 
L 420.121116 159.143601 
L 426.425095 158.718346 
L 429.444896 158.548094 
L 431.867924 158.375903 
L 442.242224 157.620465 
L 442.856498 157.608268 
L 444.392184 157.465411 
L 460.52036 156.346639 
L 462.084233 156.206347 
L 464.279032 156.045164 
L 481.995147 154.985561 
L 483.907842 154.946595 
L 485.187357 154.845019 
L 490.634743 154.644244 
L 492.244013 154.53854 
L 495.462552 154.368288 
L 515.623498 153.652567 
L 518.578611 153.526035 
L 526.458923 153.354657 
L 529.771114 153.26559 
L 533.760521 153.172021 
L 537.749923 153.128238 
L 539.079727 153.059937 
L 540.077078 153.018594 
L 554.04 152.908324 
L 554.04 152.908324 
" clip-path="url(#pffef1c79bb)" style="fill: none; stroke: #1f77b4; stroke-linecap: square"/>
   </g>
   <g id="line2d_28">
    <path d="M 47.120973 -1 
L 47.12279 433 
M 47.375003 433 
L 47.505751 276.204998 
L 47.626469 384.170746 
L 47.862764 318.092275 
L 47.978356 321.858435 
L 48.317133 310.386914 
L 48.648062 307.978254 
L 48.975601 303.07786 
L 49.084662 303.236535 
L 49.303353 301.455406 
L 49.523667 300.165594 
L 49.972783 297.25137 
L 50.087396 297.190555 
L 50.203088 296.560554 
L 50.319933 296.546143 
L 50.677743 295.582424 
L 51.172488 294.656052 
L 51.819504 294.189616 
L 51.952543 294.14103 
L 52.086683 294.259544 
L 52.221908 294.186258 
L 52.358123 294.331247 
L 52.772101 294.148648 
L 53.901936 294.1257 
L 54.18655 294.336551 
L 55.45814 293.897692 
L 55.877078 294.107111 
L 56.432174 294.31698 
L 56.570476 294.260644 
L 56.846617 294.320983 
L 57.1223 294.313872 
L 57.397715 294.462138 
L 57.535403 294.523003 
L 57.810742 294.89817 
L 57.948469 295.025246 
L 58.224037 294.890827 
L 58.499874 294.912487 
L 58.637945 294.938425 
L 58.914398 295.156181 
L 59.329965 295.238255 
L 59.7467 295.262054 
L 60.164609 295.446904 
L 60.72353 295.611421 
L 61.003704 295.712584 
L 61.284317 295.793319 
L 61.705996 296.061207 
L 61.846743 295.940667 
L 63.542027 296.613375 
L 64.251865 296.982212 
L 65.106688 297.150863 
L 65.392447 297.229384 
L 65.821964 296.872731 
L 66.108898 297.06418 
L 66.828478 297.365367 
L 67.261855 297.418413 
L 67.551475 297.557617 
L 67.841699 297.586244 
L 68.132531 297.551481 
L 69.155281 297.809867 
L 69.890671 298.176003 
L 70.18602 298.022263 
L 70.333942 298.025922 
L 70.630331 298.284346 
L 71.076281 298.428029 
L 71.523885 298.554604 
L 73.179801 299.156553 
L 73.635689 298.857443 
L 73.788054 298.857155 
L 74.553229 299.704881 
L 74.706911 300.037905 
L 75.324014 300.075664 
L 76.100651 300.361484 
L 79.591023 301.914136 
L 79.752621 302.069983 
L 79.914493 301.979047 
L 80.727806 302.392699 
L 81.38331 302.815746 
L 82.874089 303.576764 
L 83.04111 303.474319 
L 84.556879 304.586061 
L 85.408819 305.058939 
L 85.751574 305.21351 
L 87.481928 306.239551 
L 87.656473 306.252454 
L 88.181746 306.767607 
L 88.885995 307.070652 
L 91.023829 308.065125 
L 95.220798 310.02191 
L 95.591487 310.063078 
L 96.52201 310.365467 
L 98.587094 310.960967 
L 99.343821 311.140551 
L 100.484288 311.466813 
L 103.555347 312.439189 
L 103.942032 312.596481 
L 105.494686 312.950858 
L 106.27426 313.157831 
L 107.643662 313.492931 
L 108.428884 313.768055 
L 108.625532 313.723872 
L 109.610354 314.229012 
L 109.807703 314.353861 
L 110.005142 314.315939 
L 110.598064 314.465125 
L 110.993907 314.547968 
L 112.382681 315.274079 
L 113.577157 315.705889 
L 113.776555 315.627536 
L 114.575218 315.916402 
L 115.976702 316.649993 
L 117.785228 317.538531 
L 121.626089 319.555711 
L 123.252285 320.469499 
L 123.65955 320.422983 
L 124.679221 321.149369 
L 125.087648 321.279922 
L 127.134185 322.361923 
L 127.954864 322.748093 
L 131.2493 324.634044 
L 131.869023 325.011682 
L 132.282514 325.114064 
L 133.110301 325.959445 
L 133.524603 325.979429 
L 134.146564 326.297504 
L 134.35402 326.36855 
L 134.976803 326.939132 
L 135.600204 327.178442 
L 136.4323 327.688229 
L 137.26543 327.781048 
L 138.30831 328.395632 
L 138.517115 328.442792 
L 138.934827 328.708365 
L 140.189348 329.303559 
L 142.914923 330.822317 
L 143.335086 330.726996 
L 143.965754 331.076382 
L 146.493184 332.290913 
L 147.759842 333.099891 
L 147.971119 333.058548 
L 148.393773 333.313676 
L 151.782454 334.541029 
L 152.206889 334.584937 
L 152.843935 334.880157 
L 153.056317 334.940014 
L 153.268816 335.230919 
L 153.481315 335.295154 
L 153.693926 335.518321 
L 154.544597 335.708275 
L 154.97027 335.774449 
L 158.168073 337.021567 
L 159.022397 337.33355 
L 160.091286 337.673616 
L 161.161215 338.128456 
L 163.089548 338.865881 
L 167.386095 340.479335 
L 191.528557 348.475864 
L 192.188466 348.629291 
L 198.368979 350.597509 
L 199.033511 350.774954 
L 201.696762 351.606324 
L 204.145144 352.413677 
L 205.037169 352.666991 
L 207.271368 353.431749 
L 208.838863 353.937626 
L 210.409419 354.443566 
L 224.007576 358.9453 
L 224.923377 359.245336 
L 226.528826 359.794433 
L 235.543422 362.843271 
L 236.475039 363.202664 
L 251.565607 368.395226 
L 258.042355 370.659478 
L 267.026272 373.793441 
L 285.115722 380.338762 
L 292.431587 383.0541 
L 294.208279 383.677878 
L 296.243937 384.435819 
L 297.263654 384.778324 
L 298.795885 385.388467 
L 307.534694 388.668101 
L 309.604546 389.454125 
L 339.682756 400.731352 
L 349.143914 404.166665 
L 351.322223 404.955879 
L 353.780713 405.828155 
L 354.327867 405.980081 
L 357.619863 407.060637 
L 359.546715 407.706118 
L 360.925711 408.124305 
L 361.47826 408.460806 
L 362.030803 408.570075 
L 365.355679 409.623987 
L 383.343851 415.017198 
L 388.483503 416.410613 
L 390.77993 416.975847 
L 395.68523 418.246358 
L 404.133292 420.206758 
L 418.030613 423.062513 
L 421.318164 423.692233 
L 422.216957 423.896948 
L 423.4174 424.104416 
L 424.318243 424.30394 
L 425.221181 424.412958 
L 426.726784 424.677656 
L 427.933544 424.883747 
L 429.747311 425.20924 
L 438.872068 426.839769 
L 441.321653 427.223618 
L 443.777911 427.654439 
L 447.781956 428.311242 
L 450.87361 428.801045 
L 458.022278 429.845011 
L 459.269264 430.028648 
L 460.833137 430.217727 
L 467.735893 431.140853 
L 468.995807 431.302787 
L 470.888054 431.476354 
L 471.520391 431.556038 
L 472.785055 431.681632 
L 486.268964 433 
L 486.268964 433 
" clip-path="url(#pffef1c79bb)" style="fill: none; stroke: #ff7f0e; stroke-linecap: square"/>
   </g>
   <g id="patch_3">
    <path d="M 46.64 390.04 
L 46.64 14.76 
" style="fill: none; stroke: #000000; stroke-width: 0.8; stroke-linejoin: miter; stroke-linecap: square"/>
   </g>
   <g id="patch_4">
    <path d="M 554.04 390.04 
L 554.04 14.76 
" style="fill: none; stroke: #000000; stroke-width: 0.8; stroke-linejoin: miter; stroke-linecap: square"/>
   </g>
   <g id="patch_5">
    <path d="M 46.64 390.04 
L 554.04 390.04 
" style="fill: none; stroke: #000000; stroke-width: 0.8; stroke-linejoin: miter; stroke-linecap: square"/>
   </g>
   <g id="patch_6">
    <path d="M 46.64 14.76 
L 554.04 14.76 
" style="fill: none; stroke: #000000; stroke-width: 0.8; stroke-linejoin: miter; stroke-linecap: square"/>
   </g>
   <g id="legend_1">
    <g id="patch_7">
     <path d="M 501.70875 52.11625 
L 547.04 52.11625 
Q 549.04 52.11625 549.04 50.11625 
L 549.04 21.76 
Q 549.04 19.76 547.04 19.76 
L 501.70875 19.76 
Q 499.70875 19.76 499.70875 21.76 
L 499.70875 50.11625 
Q 499.70875 52.11625 501.70875 52.11625 
z
" style="fill: #ffffff; opacity: 0.8; stroke: #cccccc; stroke-linejoin: miter"/>
    </g>
    <g id="line2d_29">
     <path d="M 503.70875 27.858438 
L 513.70875 27.858438 
L 523.70875 27.858438 
" style="fill: none; stroke: #1f77b4; stroke-linecap: square"/>
    </g>
    <g id="text_16">
     <!-- Cd -->
     <g transform="translate(531.70875 31.358438) scale(0.1 -0.1)">
      <defs>
       <path id="DejaVuSans-64" d="M 2906 2969 
L 2906 4863 
L 3481 4863 
L 3481 0 
L 2906 0 
L 2906 525 
Q 2725 213 2448 61 
Q 2172 -91 1784 -91 
Q 1150 -91 751 415 
Q 353 922 353 1747 
Q 353 2572 751 3078 
Q 1150 3584 1784 3584 
Q 2172 3584 2448 3432 
Q 2725 3281 2906 2969 
z
M 947 1747 
Q 947 1113 1208 752 
Q 1469 391 1925 391 
Q 2381 391 2643 752 
Q 2906 1113 2906 1747 
Q 2906 2381 2643 2742 
Q 2381 3103 1925 3103 
Q 1469 3103 1208 2742 
Q 947 2381 947 1747 
z
" transform="scale(0.015625)"/>
      </defs>
      <use xlink:href="#DejaVuSans-43"/>
      <use xlink:href="#DejaVuSans-64" transform="translate(69.824219 0)"/>
     </g>
    </g>
    <g id="line2d_30">
     <path d="M 503.70875 42.536563 
L 513.70875 42.536563 
L 523.70875 42.536563 
" style="fill: none; stroke: #ff7f0e; stroke-linecap: square"/>
    </g>
    <g id="text_17">
     <!-- Cl -->
     <g transform="translate(531.70875 46.036563) scale(0.1 -0.1)">
      <defs>
       <path id="DejaVuSans-6c" d="M 603 4863 
L 1178 4863 
L 1178 0 
L 603 0 
L 603 4863 
z
" transform="scale(0.015625)"/>
      </defs>
      <use xlink:href="#DejaVuSans-43"/>
      <use xlink:href="#DejaVuSans-6c" transform="translate(69.824219 0)"/>
     </g>
    </g>
   </g>
  </g>
 </g>
 <defs>
  <clipPath id="pffef1c79bb">
   <rect x="46.64" y="14.76" width="507.4" height="375.28"/>
  </clipPath>
 </defs>
</svg>
